if (_typeface_js && _typeface_js.loadFace) _typeface_js.loadFace({"glyphs":{"0":{"ha":772,"x_min":57,"x_max":714,"o":"m 385 985 q 537 952 474 985 q 633 872 600 919 q 686 749 667 825 q 710 613 706 674 q 714 468 714 553 q 708 328 714 390 q 681 197 701 265 q 626 84 661 129 q 532 10 592 39 q 390 -19 472 -19 q 241 10 304 -19 q 143 85 178 40 q 88 198 108 129 q 63 328 68 267 q 57 471 57 390 q 60 592 57 540 q 74 708 64 643 q 107 817 85 772 q 164 903 129 863 q 255 964 199 943 q 385 985 311 985 m 461 863 q 444 871 461 863 q 385 879 428 879 q 308 863 342 879 q 254 826 275 847 q 218 765 233 806 q 197 696 203 724 q 186 616 190 668 q 182 542 182 564 q 182 471 182 521 q 183 390 182 422 q 190 307 185 358 q 210 222 196 256 q 244 153 224 188 q 302 102 265 119 q 388 85 339 85 q 462 100 429 85 q 515 136 494 115 q 551 195 536 157 q 572 262 565 233 q 583 338 579 290 q 587 409 586 386 q 588 476 588 432 q 588 546 588 525 q 583 618 588 567 q 573 697 579 669 q 551 765 567 725 q 515 826 536 806 q 461 863 494 847 z "},"1":{"ha":772,"x_min":121,"x_max":497,"o":"m 497 983 l 497 0 l 368 0 l 368 713 l 121 713 l 121 801 q 310 840 240 801 q 404 983 381 879 l 497 983 z "},"2":{"ha":772,"x_min":35,"x_max":685,"o":"m 676 107 l 676 0 l 35 0 q 60 143 39 82 q 124 253 81 204 q 210 335 168 303 q 328 414 251 367 q 485 526 447 489 q 563 696 563 603 q 510 830 563 778 q 372 882 457 882 q 227 812 271 882 q 181 635 183 742 l 61 635 l 61 661 q 148 896 61 807 q 378 985 235 985 q 601 907 518 985 q 685 699 685 829 q 666 594 685 643 q 624 511 647 544 q 555 440 601 478 q 478 383 508 403 q 390 328 447 363 q 239 222 276 260 q 171 107 186 171 l 676 107 z "},"3":{"ha":772,"x_min":42,"x_max":711,"o":"m 64 665 q 149 901 68 818 q 376 985 231 985 q 586 914 507 985 q 665 728 665 843 q 630 603 665 658 q 531 522 594 549 q 663 439 614 503 q 711 285 711 375 q 617 65 713 149 q 371 -19 522 -19 q 131 63 221 -19 q 42 286 42 146 l 42 304 l 158 304 q 218 142 163 199 q 372 85 274 85 q 526 138 467 85 q 585 276 585 192 q 526 414 585 363 q 367 465 467 465 q 303 460 342 465 l 303 560 q 343 558 322 558 q 488 602 435 558 q 542 721 542 646 q 495 838 542 793 q 371 882 449 882 q 232 826 282 882 q 179 665 182 769 l 64 665 z "},"4":{"ha":772,"x_min":39,"x_max":715,"o":"m 715 338 l 715 238 l 582 238 l 582 0 l 471 0 l 471 238 l 39 238 l 39 349 l 486 985 l 582 985 l 582 338 l 715 338 m 471 338 l 471 811 l 143 338 l 471 338 z "},"5":{"ha":772,"x_min":49,"x_max":707,"o":"m 654 967 l 654 863 l 256 863 l 197 569 q 396 647 269 647 q 621 558 535 647 q 707 325 707 468 q 613 78 707 175 q 367 -19 518 -19 q 140 58 226 -19 q 49 265 53 136 l 168 265 q 231 132 175 183 q 368 81 286 81 q 521 147 460 81 q 582 313 582 214 q 522 480 582 415 q 367 544 463 544 q 178 449 244 544 l 76 456 l 168 967 l 654 967 z "},"6":{"ha":772,"x_min":54,"x_max":721,"o":"m 694 729 l 574 729 q 522 841 564 800 q 407 882 479 882 q 317 864 357 882 q 253 812 278 846 q 213 743 229 778 q 188 658 196 708 q 176 577 179 608 q 171 501 174 546 q 415 631 251 631 q 637 544 553 631 q 721 315 721 457 q 633 75 721 169 q 397 -19 544 -19 q 54 469 54 -19 q 63 614 54 546 q 97 752 72 682 q 160 872 121 822 q 263 953 199 922 q 411 985 328 985 q 610 917 535 985 q 694 729 685 850 m 394 528 q 249 467 304 528 q 193 310 193 407 q 249 147 193 208 q 397 86 306 86 q 541 145 486 86 q 596 304 596 204 q 542 467 596 407 q 394 528 488 528 z "},"7":{"ha":772,"x_min":64,"x_max":700,"o":"m 700 967 l 700 865 q 324 0 378 497 l 193 0 q 313 451 210 228 q 579 854 417 675 l 64 854 l 64 967 l 700 967 z "},"8":{"ha":772,"x_min":56,"x_max":715,"o":"m 229 526 q 128 608 164 554 q 93 733 93 661 q 175 915 93 844 q 386 985 257 985 q 595 916 514 985 q 676 739 676 847 q 542 526 676 589 q 715 286 715 465 q 625 63 715 146 q 382 -19 535 -19 q 145 62 235 -19 q 56 278 56 143 q 101 431 56 367 q 229 526 146 496 m 510 838 q 487 858 510 838 q 386 879 464 879 q 261 837 308 879 q 214 725 214 794 q 261 613 214 656 q 386 571 308 571 q 509 613 463 571 q 556 725 556 656 q 510 838 556 796 m 382 475 q 236 420 293 475 q 179 281 179 365 q 237 137 179 193 q 385 81 294 81 q 534 136 476 81 q 592 279 592 192 q 533 421 592 367 q 382 475 475 475 z "},"9":{"ha":772,"x_min":47,"x_max":711,"o":"m 69 238 l 186 238 q 244 124 196 165 q 367 83 292 83 q 586 404 560 83 q 589 469 589 433 q 349 335 506 335 q 131 423 214 335 q 47 654 47 511 q 138 893 47 801 q 372 985 228 985 q 711 504 711 985 q 702 363 711 431 q 669 224 693 296 q 608 100 646 153 q 508 14 571 47 q 363 -19 444 -19 q 158 49 238 -19 q 69 238 78 117 m 367 879 q 226 819 279 879 q 172 658 172 758 q 223 502 172 564 q 367 440 274 440 q 513 499 457 440 q 568 656 568 558 q 513 818 568 757 q 367 879 457 879 z "}," ":{"ha":386,"x_min":0,"x_max":0,"o":""},"!":{"ha":360,"x_min":107,"x_max":253,"o":"m 246 989 l 246 686 l 211 246 l 147 246 l 115 686 l 115 989 l 246 989 m 253 140 l 253 0 l 107 0 l 107 140 l 253 140 z "},"\"":{"ha":592,"x_min":143,"x_max":449,"o":"m 221 581 l 157 581 l 143 967 l 233 967 l 221 581 m 436 581 l 371 581 l 358 967 l 449 967 l 436 581 z "},"#":{"ha":772,"x_min":19,"x_max":753,"o":"m 204 0 l 114 0 l 169 293 l 19 293 l 19 371 l 183 371 l 228 599 l 78 599 l 76 675 l 242 675 l 297 967 l 388 967 l 332 675 l 513 675 l 569 967 l 658 967 l 603 675 l 753 675 l 753 599 l 589 599 l 544 371 l 694 371 l 696 293 l 531 293 l 475 0 l 386 0 l 440 293 l 260 293 l 204 0 m 456 371 l 499 599 l 317 599 l 274 371 l 456 371 z "},"$":{"ha":772,"x_min":43,"x_max":721,"o":"m 414 1094 l 414 999 q 697 732 693 994 l 581 732 l 581 740 q 414 901 581 889 l 414 557 q 509 528 476 539 q 590 493 542 517 q 661 442 638 469 q 703 371 685 415 q 721 268 721 326 q 640 64 721 140 q 414 -22 560 -12 l 414 -137 l 349 -137 l 349 -22 q 126 62 208 -15 q 43 282 43 139 l 43 296 l 161 296 q 160 278 160 288 q 349 76 160 93 l 349 458 q 138 547 213 485 q 63 725 63 608 q 142 917 63 849 q 349 999 221 986 l 349 1094 l 414 1094 m 349 569 l 349 899 q 224 848 269 892 q 178 735 178 804 q 224 625 178 663 q 349 569 269 588 m 414 443 l 414 75 q 550 131 497 78 q 603 265 603 183 q 414 443 603 403 z "},"%":{"ha":1389,"x_min":129,"x_max":1268,"o":"m 1010 1015 l 456 -47 l 361 -47 l 918 1015 l 1010 1015 m 358 988 q 520 919 464 988 q 576 722 576 851 q 519 506 576 581 q 353 431 463 431 q 129 711 129 431 q 189 915 129 843 q 358 988 249 988 m 472 717 q 353 907 472 907 q 233 704 233 907 q 353 510 233 510 q 472 717 472 510 m 1050 536 q 1212 468 1156 536 q 1268 271 1268 400 q 1211 54 1268 129 q 1044 -21 1154 -21 q 821 260 821 -21 q 881 464 821 392 q 1050 536 940 536 m 1164 265 q 1044 456 1164 456 q 925 253 925 456 q 1044 58 925 58 q 1164 265 1164 58 z "},"&":{"ha":875,"x_min":46,"x_max":894,"o":"m 771 468 q 703 224 764 328 l 894 0 l 742 0 l 636 125 q 347 -21 533 -21 q 133 55 219 -21 q 46 258 46 131 q 113 434 46 356 q 278 556 179 513 q 171 785 171 686 q 235 936 171 878 q 401 994 300 994 q 565 937 501 994 q 628 789 628 879 q 446 532 628 628 l 626 311 q 658 468 654 379 l 771 468 m 383 608 q 514 779 514 686 q 481 864 514 831 q 400 897 449 897 q 318 866 351 897 q 285 789 285 835 q 287 768 285 779 q 293 746 289 757 q 301 726 297 735 q 314 703 306 717 q 326 683 322 690 q 341 662 331 676 q 355 643 351 647 q 370 624 358 639 q 383 608 382 610 m 342 479 q 169 264 169 392 q 225 134 169 188 q 360 81 281 81 q 569 204 490 81 l 342 479 z "},"'":{"ha":386,"x_min":147,"x_max":238,"o":"m 225 581 l 161 581 l 147 967 l 238 967 l 225 581 z "},"(":{"ha":360,"x_min":67,"x_max":374,"o":"m 374 1007 q 189 367 189 722 q 374 -264 189 28 l 283 -264 q 119 52 171 -89 q 67 365 67 193 q 283 1007 67 717 l 374 1007 z "},")":{"ha":360,"x_min":-17,"x_max":290,"o":"m 290 365 q 238 52 290 193 q 74 -264 186 -89 l -17 -264 q 168 367 168 28 q -17 1007 168 722 l 74 1007 q 290 365 290 717 z "},"*":{"ha":489,"x_min":33,"x_max":456,"o":"m 456 835 l 304 782 l 396 657 l 339 615 l 243 746 l 151 615 l 90 657 l 181 782 l 33 835 l 57 903 l 206 847 l 206 1004 l 281 1004 l 281 847 l 428 903 l 456 835 z "},"+":{"ha":833,"x_min":68,"x_max":765,"o":"m 371 0 l 371 307 l 68 307 l 68 389 l 371 389 l 371 696 l 463 696 l 463 389 l 765 389 l 765 307 l 463 307 l 463 0 l 371 0 z "},",":{"ha":386,"x_min":115,"x_max":269,"o":"m 269 154 l 269 60 q 265 -30 269 7 q 244 -104 260 -67 q 197 -167 229 -142 q 115 -206 165 -193 l 115 -136 q 192 0 190 -111 l 115 0 l 115 154 l 269 154 z "},"-":{"ha":540,"x_min":68,"x_max":472,"o":"m 472 444 l 472 328 l 68 328 l 68 444 l 472 444 z "},".":{"ha":386,"x_min":115,"x_max":269,"o":"m 269 154 l 269 0 l 115 0 l 115 154 l 269 154 z "},"/":{"ha":463,"x_min":-25,"x_max":488,"o":"m 488 1013 l 75 -24 l -25 -24 l 390 1013 l 488 1013 z "},":":{"ha":386,"x_min":115,"x_max":269,"o":"m 269 154 l 269 0 l 115 0 l 115 154 l 269 154 m 269 717 l 269 563 l 115 563 l 115 717 l 269 717 z "},";":{"ha":386,"x_min":115,"x_max":269,"o":"m 269 154 l 269 60 q 265 -30 269 7 q 244 -104 260 -67 q 197 -167 229 -142 q 115 -206 165 -193 l 115 -136 q 192 0 190 -111 l 115 0 l 115 154 l 269 154 m 269 717 l 269 563 l 115 563 l 115 717 l 269 717 z "},"<":{"ha":833,"x_min":68,"x_max":765,"o":"m 68 310 l 68 400 l 765 678 l 765 585 l 178 354 l 765 126 l 765 33 l 68 310 z "},"=":{"ha":833,"x_min":68,"x_max":765,"o":"m 68 450 l 68 533 l 765 533 l 765 450 l 68 450 m 68 186 l 68 268 l 765 268 l 765 186 l 68 186 z "},">":{"ha":833,"x_min":68,"x_max":765,"o":"m 765 310 l 68 33 l 68 126 l 656 354 l 68 585 l 68 678 l 765 400 l 765 310 z "},"?":{"ha":772,"x_min":76,"x_max":682,"o":"m 76 679 q 156 915 76 824 q 389 1007 236 1007 q 602 935 522 1007 q 682 740 682 863 q 656 613 682 667 q 574 508 629 560 q 538 476 567 501 q 506 444 510 450 q 483 418 501 439 q 461 385 464 397 q 450 350 458 374 q 440 301 442 326 q 439 240 439 275 l 325 240 l 325 249 q 331 351 325 311 q 360 430 338 392 q 403 490 383 468 q 478 567 424 513 q 540 647 522 611 q 557 726 557 682 q 511 854 557 807 q 388 901 465 901 q 193 679 206 901 l 76 679 m 453 140 l 453 0 l 307 0 l 307 140 l 453 140 z "},"@":{"ha":1111,"x_min":43,"x_max":1068,"o":"m 974 165 l 1003 125 q 797 11 896 46 q 581 -24 699 -24 q 199 115 354 -24 q 43 479 43 254 q 204 859 43 706 q 604 1013 365 1013 q 938 897 808 1013 q 1068 599 1068 782 q 983 342 1068 451 q 786 233 899 233 q 708 261 738 233 q 678 332 678 289 q 685 378 678 350 q 486 233 614 233 q 351 291 403 233 q 300 442 300 349 q 383 678 300 578 q 575 779 465 779 q 742 654 713 779 l 771 758 l 851 758 l 769 482 q 742 351 742 386 q 759 308 742 324 q 807 292 776 292 q 949 387 886 292 q 1013 601 1013 482 q 899 860 1013 761 q 603 958 785 958 q 243 821 388 958 q 99 478 99 683 q 239 153 99 276 q 583 31 379 31 q 784 64 693 31 q 974 165 875 97 m 704 597 q 674 688 704 653 q 592 722 643 722 q 451 627 507 722 q 394 440 394 532 q 425 332 394 372 q 508 292 456 292 q 649 397 594 292 q 704 597 704 503 z "},"A":{"ha":900,"x_min":-11,"x_max":911,"o":"m 525 989 l 911 0 l 765 0 l 656 303 l 240 303 l 128 0 l -11 0 l 378 989 l 525 989 m 617 407 l 449 864 l 278 407 l 617 407 z "},"B":{"ha":951,"x_min":110,"x_max":892,"o":"m 110 989 l 532 989 q 758 929 668 989 q 847 742 847 869 q 808 610 847 668 q 701 529 768 553 q 842 443 793 508 q 892 279 892 378 q 517 0 892 0 l 110 0 l 110 989 m 238 878 l 238 565 l 472 565 q 541 567 513 565 q 606 578 569 569 q 663 602 642 586 q 701 649 685 618 q 717 722 717 679 q 703 795 717 765 q 669 841 689 825 q 616 865 650 857 q 555 876 582 874 q 485 878 528 878 l 238 878 m 238 463 l 238 110 l 499 110 q 578 112 547 110 q 647 124 608 114 q 707 152 685 133 q 744 206 729 171 q 760 292 760 242 q 749 364 760 333 q 715 413 739 394 q 669 442 690 431 q 607 457 647 453 q 544 462 567 461 q 476 463 522 463 l 238 463 z "},"C":{"ha":1003,"x_min":61,"x_max":947,"o":"m 947 374 q 817 81 931 186 q 519 -24 704 -24 q 185 116 308 -24 q 61 493 61 256 q 185 863 61 715 q 529 1011 310 1011 q 806 926 686 1011 q 939 692 925 842 l 808 692 q 711 844 786 789 q 526 899 636 899 q 277 782 361 899 q 193 494 193 665 q 282 197 193 306 q 525 89 371 89 q 726 162 651 89 q 817 374 801 235 l 947 374 z "},"D":{"ha":978,"x_min":110,"x_max":922,"o":"m 110 989 l 432 989 q 803 872 683 989 q 922 503 922 756 q 811 127 922 254 q 456 0 700 0 l 110 0 l 110 989 m 240 876 l 240 113 l 439 113 q 709 203 625 113 q 793 488 793 294 q 711 783 793 690 q 433 876 629 876 l 240 876 z "},"E":{"ha":849,"x_min":110,"x_max":801,"o":"m 794 989 l 794 875 l 240 875 l 240 565 l 758 565 l 758 456 l 240 456 l 240 114 l 801 114 l 801 0 l 110 0 l 110 989 l 794 989 z "},"F":{"ha":797,"x_min":111,"x_max":761,"o":"m 761 989 l 761 875 l 242 875 l 242 567 l 700 567 l 700 457 l 242 457 l 242 0 l 111 0 l 111 989 l 761 989 z "},"G":{"ha":1054,"x_min":61,"x_max":968,"o":"m 968 524 l 968 0 l 885 0 l 851 124 q 532 -24 732 -24 q 191 117 321 -24 q 61 486 61 258 q 190 861 61 713 q 542 1010 318 1010 q 733 974 644 1010 q 885 863 822 939 q 956 685 947 788 l 828 685 q 734 841 813 782 q 542 900 656 900 q 286 790 381 900 q 192 490 192 679 q 286 194 192 304 q 540 85 381 85 q 769 176 690 85 q 851 417 847 267 l 535 417 l 535 524 l 968 524 z "},"H":{"ha":1003,"x_min":110,"x_max":893,"o":"m 893 989 l 893 0 l 763 0 l 763 463 l 240 463 l 240 0 l 110 0 l 110 989 l 240 989 l 240 576 l 763 576 l 763 989 l 893 989 z "},"I":{"ha":360,"x_min":115,"x_max":246,"o":"m 246 989 l 246 0 l 115 0 l 115 989 l 246 989 z "},"J":{"ha":721,"x_min":35,"x_max":615,"o":"m 615 989 l 615 304 q 602 174 615 229 q 558 72 589 118 q 471 1 528 25 q 331 -24 414 -24 q 104 54 174 -24 q 35 288 35 132 q 36 325 35 307 l 163 325 l 163 290 q 197 138 163 190 q 329 85 231 85 q 403 99 374 85 q 449 131 433 113 q 474 185 465 150 q 483 246 482 219 q 485 317 485 272 l 485 989 l 615 989 z "},"K":{"ha":926,"x_min":110,"x_max":929,"o":"m 913 989 l 496 592 l 929 0 l 763 0 l 404 503 l 240 347 l 240 0 l 110 0 l 110 989 l 240 989 l 240 499 l 742 989 l 913 989 z "},"L":{"ha":772,"x_min":111,"x_max":767,"o":"m 767 114 l 767 0 l 111 0 l 111 989 l 242 989 l 242 114 l 767 114 z "},"M":{"ha":1210,"x_min":111,"x_max":1099,"o":"m 111 989 l 292 989 l 610 151 l 917 989 l 1099 989 l 1099 0 l 975 0 l 975 825 l 665 0 l 551 0 l 236 825 l 236 0 l 111 0 l 111 989 z "},"N":{"ha":1003,"x_min":104,"x_max":896,"o":"m 104 989 l 247 989 l 769 186 l 769 989 l 896 989 l 896 0 l 749 0 l 229 793 l 229 0 l 104 0 l 104 989 z "},"O":{"ha":1056,"x_min":54,"x_max":1001,"o":"m 526 1013 q 876 872 751 1013 q 1001 503 1001 731 q 878 125 1001 274 q 528 -24 754 -24 q 321 18 413 -24 q 172 133 229 60 q 84 301 114 207 q 54 506 54 396 q 183 875 54 738 q 526 1013 311 1013 m 526 899 q 273 783 361 899 q 185 496 185 667 q 278 199 185 310 q 529 89 372 89 q 778 200 685 89 q 871 496 871 311 q 777 789 871 679 q 526 899 683 899 z "},"P":{"ha":900,"x_min":115,"x_max":851,"o":"m 115 989 l 522 989 q 763 920 674 989 q 851 704 851 851 q 514 406 851 406 l 246 406 l 246 0 l 115 0 l 115 989 m 246 876 l 246 515 l 497 515 q 662 555 603 515 q 721 696 721 594 q 702 790 721 753 q 647 846 683 828 q 572 870 611 864 q 479 876 533 876 l 246 876 z "},"Q":{"ha":1056,"x_min":54,"x_max":1001,"o":"m 985 -3 l 917 -85 l 767 36 q 525 -24 664 -24 q 178 126 303 -24 q 54 506 54 276 q 183 873 54 735 q 528 1011 313 1011 q 874 874 747 1011 q 1001 499 1001 738 q 854 101 1001 242 l 985 -3 m 626 283 l 757 176 q 871 496 871 290 q 778 788 871 678 q 531 899 685 899 q 275 784 365 899 q 185 500 185 669 q 273 206 185 324 q 533 88 361 88 q 668 115 613 88 l 557 203 l 626 283 z "},"R":{"ha":951,"x_min":110,"x_max":914,"o":"m 110 989 l 544 989 q 876 715 876 989 q 830 563 876 629 q 707 475 783 497 q 788 443 757 464 q 832 385 818 422 q 850 318 846 347 q 857 232 854 289 q 858 205 857 226 q 860 176 860 183 q 862 149 860 168 q 865 119 864 129 q 869 93 867 110 q 876 66 872 76 q 886 42 881 56 q 899 19 892 29 q 914 0 906 8 l 764 0 q 748 35 754 14 q 739 84 742 56 q 735 130 736 113 q 732 181 733 147 q 731 218 731 214 q 678 386 724 344 q 500 428 633 428 l 240 428 l 240 0 l 110 0 l 110 989 m 240 878 l 240 532 l 486 532 q 563 535 532 532 q 632 547 594 538 q 692 575 669 557 q 731 626 715 593 q 746 707 746 660 q 685 842 746 807 q 521 878 625 878 l 240 878 z "},"S":{"ha":900,"x_min":54,"x_max":849,"o":"m 810 699 l 683 699 q 438 900 663 900 q 272 857 331 900 q 214 736 214 814 q 222 688 214 708 q 251 651 231 667 q 289 624 271 635 q 346 601 307 613 q 408 585 385 590 q 482 569 432 581 q 583 547 543 557 q 679 513 624 536 q 767 460 735 489 q 824 385 800 432 q 849 278 849 338 q 790 103 849 174 q 649 6 732 33 q 464 -22 565 -22 q 166 66 278 -22 q 54 326 54 154 l 181 326 q 265 142 185 200 q 475 85 346 85 q 649 127 576 85 q 721 265 721 169 q 701 341 721 310 q 640 392 682 372 q 557 425 599 413 q 447 453 515 438 q 433 456 438 454 q 233 511 281 490 q 89 726 89 574 q 194 938 89 868 q 447 1008 299 1008 q 707 931 610 1008 q 810 699 804 853 z "},"T":{"ha":797,"x_min":1,"x_max":796,"o":"m 796 989 l 796 875 l 464 875 l 464 0 l 333 0 l 333 875 l 1 875 l 1 989 l 796 989 z "},"U":{"ha":1003,"x_min":103,"x_max":900,"o":"m 103 989 l 235 989 l 235 365 q 297 154 235 221 q 501 88 360 88 q 708 156 647 88 q 768 365 768 224 l 768 989 l 900 989 l 900 400 q 810 81 900 183 q 501 -21 719 -21 q 197 78 290 -21 q 103 386 103 178 l 103 989 z "},"V":{"ha":849,"x_min":-3,"x_max":851,"o":"m -3 989 l 142 989 l 426 128 l 714 989 l 851 989 l 499 0 l 349 0 l -3 989 z "},"W":{"ha":1286,"x_min":19,"x_max":1271,"o":"m 19 989 l 154 989 l 350 163 l 574 989 l 717 989 l 938 163 l 1140 989 l 1271 989 l 1007 0 l 869 0 l 642 828 l 411 0 l 274 0 l 19 989 z "},"X":{"ha":849,"x_min":-7,"x_max":844,"o":"m 826 989 l 497 510 l 844 0 l 686 0 l 419 407 l 143 0 l -7 0 l 342 510 l 15 989 l 172 989 l 421 608 l 678 989 l 826 989 z "},"Y":{"ha":900,"x_min":4,"x_max":900,"o":"m 900 989 l 518 404 l 518 0 l 389 0 l 389 404 l 4 989 l 161 989 l 457 518 l 750 989 l 900 989 z "},"Z":{"ha":849,"x_min":24,"x_max":813,"o":"m 797 989 l 797 881 l 181 114 l 813 114 l 813 0 l 24 0 l 24 111 l 639 875 l 72 875 l 72 989 l 797 989 z "},"[":{"ha":360,"x_min":100,"x_max":363,"o":"m 363 1004 l 363 910 l 213 910 l 213 -167 l 363 -167 l 363 -261 l 100 -261 l 100 1004 l 363 1004 z "},"\\":{"ha":463,"x_min":-25,"x_max":488,"o":"m 488 -24 l 388 -24 l -25 1013 l 72 1013 l 488 -24 z "},"]":{"ha":360,"x_min":-3,"x_max":260,"o":"m 260 1004 l 260 -261 l -3 -261 l -3 -167 l 147 -167 l 147 910 l -3 910 l -3 1004 l 260 1004 z "},"^":{"ha":833,"x_min":138,"x_max":696,"o":"m 138 390 l 374 967 l 460 967 l 696 390 l 600 390 l 415 857 l 233 390 l 138 390 z "},"_":{"ha":694,"x_min":0,"x_max":694,"o":"m 0 -174 l 0 -104 l 694 -104 l 694 -174 l 0 -174 z "},"`":{"ha":308,"x_min":-33,"x_max":239,"o":"m 119 1017 l 239 819 l 150 819 l -33 1017 l 119 1017 z "},"a":{"ha":746,"x_min":50,"x_max":724,"o":"m 724 94 l 724 3 q 643 -11 688 -11 q 539 94 542 -11 q 279 -19 438 -19 q 112 35 174 -19 q 50 183 50 89 q 304 407 50 375 q 478 433 454 425 q 532 503 528 450 q 533 521 533 511 q 371 639 533 639 q 244 605 288 639 q 193 493 201 571 l 78 493 q 160 672 81 608 q 378 736 239 736 q 603 667 529 736 q 638 608 626 644 q 650 549 649 572 q 651 481 651 526 q 649 320 651 426 q 646 161 646 214 q 656 106 646 122 q 694 90 667 90 q 724 94 706 90 m 533 372 q 507 356 521 363 q 472 344 493 349 q 442 338 450 340 q 406 333 435 336 q 375 329 376 329 q 319 322 332 324 q 269 310 306 319 q 217 288 232 300 q 187 251 201 275 q 172 193 172 226 q 210 106 172 138 q 315 74 249 74 q 467 124 400 74 q 533 242 533 174 l 533 372 z "},"b":{"ha":824,"x_min":88,"x_max":767,"o":"m 206 989 l 206 618 q 443 736 283 736 q 678 634 590 736 q 767 361 767 532 q 676 83 767 188 q 436 -21 586 -21 q 199 104 265 -21 l 199 0 l 88 0 l 88 989 l 206 989 m 425 636 q 256 554 311 636 q 201 353 201 472 q 262 152 201 226 q 425 78 322 78 q 584 155 524 78 q 644 360 644 232 q 585 561 644 486 q 425 636 525 636 z "},"c":{"ha":746,"x_min":53,"x_max":706,"o":"m 706 261 q 608 56 690 132 q 393 -21 525 -21 q 142 80 231 -21 q 53 349 53 181 q 146 633 53 528 q 397 738 239 738 q 608 672 529 738 q 701 483 688 606 l 579 483 q 399 639 547 639 q 236 563 296 639 q 176 358 176 488 q 233 153 176 228 q 390 78 290 78 q 522 125 471 78 q 586 261 572 172 l 706 261 z "},"d":{"ha":824,"x_min":56,"x_max":735,"o":"m 735 989 l 735 0 l 624 0 l 624 106 q 388 -19 556 -19 q 145 83 235 -19 q 56 360 56 185 q 140 630 56 522 q 382 738 224 738 q 617 621 536 738 l 617 989 l 735 989 m 397 636 q 237 563 296 636 q 178 363 178 489 q 238 155 178 232 q 400 78 299 78 q 561 152 503 78 q 619 358 619 226 q 565 556 619 476 q 397 636 510 636 z "},"e":{"ha":746,"x_min":51,"x_max":710,"o":"m 701 226 q 389 -24 647 -24 q 141 75 231 -24 q 51 349 51 174 q 144 630 51 522 q 385 738 236 738 q 630 626 550 738 q 710 343 710 514 l 710 326 l 171 326 l 169 318 q 229 139 169 204 q 393 74 289 74 q 516 110 471 74 q 586 226 561 146 l 701 226 m 588 422 q 525 583 579 525 q 382 640 471 640 q 239 582 296 640 q 171 422 182 524 l 588 422 z "},"f":{"ha":411,"x_min":17,"x_max":413,"o":"m 413 992 l 413 889 q 347 894 382 894 q 274 876 292 894 q 257 799 257 858 l 257 717 l 394 717 l 394 619 l 257 619 l 257 0 l 138 0 l 138 619 l 17 619 l 17 717 l 138 717 l 138 813 q 188 953 138 910 q 336 997 238 997 q 413 992 367 997 z "},"g":{"ha":797,"x_min":54,"x_max":710,"o":"m 710 717 l 710 78 q 700 -66 710 -15 q 664 -161 690 -117 q 381 -292 585 -292 q 176 -242 260 -292 q 79 -81 93 -193 l 200 -81 q 385 -200 221 -200 q 544 -144 494 -200 q 596 35 593 -89 l 597 122 q 369 -8 529 -8 q 140 90 225 -8 q 54 356 54 189 q 139 624 54 513 q 375 736 224 736 q 509 704 450 736 q 601 613 568 672 l 601 717 l 710 717 m 381 633 q 230 559 285 633 q 175 354 175 485 q 232 165 175 236 q 383 93 289 93 q 538 168 482 93 q 594 374 594 243 q 538 565 594 496 q 381 633 482 633 z "},"h":{"ha":772,"x_min":89,"x_max":683,"o":"m 207 989 l 207 615 q 442 735 286 735 q 683 490 683 735 l 683 0 l 565 0 l 565 463 q 531 588 565 544 q 408 632 497 632 q 253 563 300 632 q 207 364 207 493 l 207 0 l 89 0 l 89 989 l 207 989 z "},"i":{"ha":308,"x_min":94,"x_max":214,"o":"m 214 989 l 214 844 l 94 844 l 94 989 l 214 989 m 214 717 l 214 0 l 94 0 l 94 717 l 214 717 z "},"j":{"ha":308,"x_min":-21,"x_max":217,"o":"m 217 717 l 217 -79 q 179 -238 217 -187 q 33 -289 142 -289 q -21 -283 11 -289 l -21 -185 q 19 -187 15 -187 q 65 -182 49 -187 q 89 -158 82 -176 q 97 -127 96 -140 q 97 -76 97 -114 l 97 717 l 217 717 m 217 989 l 217 844 l 97 844 l 97 989 l 217 989 z "},"k":{"ha":721,"x_min":89,"x_max":713,"o":"m 692 717 l 407 457 l 713 0 l 563 0 l 317 375 l 204 271 l 204 0 l 89 0 l 89 989 l 204 989 l 204 404 l 533 717 l 692 717 z "},"l":{"ha":308,"x_min":94,"x_max":214,"o":"m 214 989 l 214 0 l 94 0 l 94 989 l 214 989 z "},"m":{"ha":1185,"x_min":89,"x_max":1096,"o":"m 200 717 l 200 613 q 301 706 247 676 q 433 735 356 735 q 632 611 581 735 q 869 736 725 736 q 1038 674 981 736 q 1096 501 1096 613 l 1096 0 l 978 0 l 978 451 q 950 585 978 540 q 835 631 922 631 q 651 407 651 631 l 651 0 l 533 0 l 533 460 q 506 585 533 542 q 401 629 479 629 q 249 562 292 629 q 207 379 207 494 l 207 0 l 89 0 l 89 717 l 200 717 z "},"n":{"ha":772,"x_min":89,"x_max":683,"o":"m 200 717 l 200 606 q 444 736 289 736 q 627 670 571 736 q 683 476 683 604 l 683 0 l 565 0 l 565 422 q 562 505 565 475 q 544 569 558 535 q 497 618 531 603 q 411 633 464 633 q 207 375 207 633 l 207 0 l 89 0 l 89 717 l 200 717 z "},"o":{"ha":797,"x_min":51,"x_max":746,"o":"m 146 635 q 193 686 146 635 q 403 738 240 738 q 656 639 565 738 q 746 363 746 540 q 656 79 746 181 q 401 -22 565 -22 q 144 78 238 -22 q 51 356 51 178 q 146 635 51 532 m 565 563 q 534 601 565 563 q 400 639 504 639 q 235 563 296 639 q 174 358 174 486 q 234 152 174 226 q 403 78 294 78 q 566 153 507 78 q 625 360 625 228 q 565 563 625 488 z "},"p":{"ha":824,"x_min":89,"x_max":768,"o":"m 200 717 l 200 615 q 442 739 278 739 q 680 638 592 739 q 768 363 768 536 q 681 85 768 189 q 447 -18 594 -18 q 207 100 293 -18 l 207 -276 l 89 -276 l 89 717 l 200 717 m 424 640 q 262 566 321 640 q 203 361 203 492 q 263 156 203 231 q 428 82 324 82 q 588 157 529 82 q 646 361 646 232 q 587 566 646 492 q 424 640 528 640 z "},"q":{"ha":824,"x_min":57,"x_max":735,"o":"m 735 717 l 735 -276 l 617 -276 l 617 101 q 376 -18 543 -18 q 140 90 222 -18 q 57 356 57 197 q 146 635 57 532 q 388 739 235 739 q 625 615 550 739 l 625 717 l 735 717 m 397 640 q 239 563 299 640 q 179 357 179 486 q 238 156 179 231 q 399 81 297 81 q 561 156 501 81 q 621 364 621 232 q 561 567 621 493 q 397 640 501 640 z "},"r":{"ha":463,"x_min":85,"x_max":463,"o":"m 463 733 l 463 611 q 432 613 450 613 q 333 595 375 613 q 267 550 292 578 q 228 481 243 522 q 208 397 213 439 q 203 303 203 356 l 203 0 l 85 0 l 85 717 l 197 717 l 197 563 q 463 733 268 733 z "},"s":{"ha":694,"x_min":44,"x_max":650,"o":"m 621 508 l 503 508 q 328 639 492 639 q 221 613 260 639 q 182 542 182 586 q 185 517 182 529 q 195 497 188 506 q 209 481 203 488 q 230 467 215 474 q 252 457 244 461 q 280 448 260 453 q 308 441 300 443 q 341 433 317 439 q 372 426 365 428 q 449 408 424 415 q 520 383 475 401 q 589 344 565 364 q 631 288 613 324 q 650 208 650 253 q 569 41 650 104 q 353 -22 488 -22 q 128 42 207 -22 q 44 226 50 106 l 161 226 q 356 75 171 75 q 483 108 435 75 q 531 194 531 140 q 506 254 531 231 q 450 288 481 278 q 363 313 419 299 q 350 315 354 314 q 297 327 338 318 q 238 342 256 336 q 185 359 219 347 q 135 384 151 371 q 98 417 118 397 q 69 465 78 438 q 61 526 61 492 q 135 681 61 624 q 335 738 210 738 q 541 678 461 738 q 621 508 621 618 z "},"t":{"ha":438,"x_min":14,"x_max":396,"o":"m 396 717 l 396 619 l 253 619 l 253 201 q 253 156 253 167 q 261 126 254 144 q 285 101 268 107 q 332 96 301 96 q 396 100 358 96 l 396 -1 q 306 -7 346 -7 q 222 4 256 -7 q 172 29 189 15 q 146 78 154 43 q 136 138 138 114 q 135 219 135 163 q 135 239 135 232 l 135 619 l 14 619 l 14 717 l 135 717 l 135 929 l 253 929 l 253 717 l 396 717 z "},"u":{"ha":772,"x_min":88,"x_max":683,"o":"m 683 717 l 683 0 l 574 0 l 574 113 q 326 -19 482 -19 q 150 43 213 -19 q 88 224 88 106 l 88 717 l 206 717 l 206 256 q 238 127 206 171 q 356 83 271 83 q 565 342 565 83 l 565 717 l 683 717 z "},"v":{"ha":694,"x_min":19,"x_max":675,"o":"m 19 717 l 151 717 l 354 115 l 551 717 l 675 717 l 413 0 l 286 0 l 19 717 z "},"w":{"ha":1053,"x_min":24,"x_max":1029,"o":"m 24 717 l 154 717 l 318 126 l 464 717 l 593 717 l 744 126 l 907 717 l 1029 717 l 800 0 l 675 0 l 528 567 l 382 0 l 254 0 l 24 717 z "},"x":{"ha":719,"x_min":13,"x_max":707,"o":"m 678 717 l 428 386 l 707 0 l 556 0 l 354 294 l 156 0 l 13 0 l 282 378 l 33 717 l 183 717 l 357 471 l 535 717 l 678 717 z "},"y":{"ha":694,"x_min":11,"x_max":682,"o":"m 682 717 l 375 -92 q 344 -167 357 -140 q 306 -227 331 -194 q 248 -274 282 -260 q 168 -289 214 -289 q 81 -276 133 -289 l 81 -171 q 157 -186 132 -186 q 240 -126 215 -186 l 296 4 l 11 717 l 144 717 l 357 146 l 558 717 l 682 717 z "},"z":{"ha":667,"x_min":31,"x_max":636,"o":"m 618 717 l 618 639 l 182 100 l 636 100 l 636 0 l 31 0 l 31 90 l 458 619 l 58 619 l 58 717 l 618 717 z "},"{":{"ha":463,"x_min":3,"x_max":460,"o":"m 3 400 q 139 456 110 413 q 168 608 168 499 l 168 675 q 231 917 168 840 q 460 1004 293 993 l 460 932 q 319 878 358 922 q 281 733 281 833 l 281 644 q 276 546 281 585 q 254 467 271 507 q 201 403 238 426 q 106 371 164 379 q 188 346 154 364 q 239 306 221 328 q 267 245 257 283 q 278 177 276 207 q 281 97 281 147 l 281 25 q 317 -135 281 -86 q 460 -189 354 -183 l 460 -261 q 233 -178 299 -251 q 168 54 168 -104 l 168 135 q 137 290 168 247 q 3 342 106 332 l 3 400 z "},"|":{"ha":308,"x_min":108,"x_max":200,"o":"m 108 -297 l 108 1092 l 200 1092 l 200 -297 l 108 -297 z "},"}":{"ha":463,"x_min":3,"x_max":460,"o":"m 460 342 q 326 290 357 332 q 294 135 294 247 l 294 54 q 229 -178 294 -104 q 3 -261 164 -251 l 3 -189 q 145 -135 108 -183 q 182 25 182 -86 l 182 97 q 184 177 182 147 q 196 245 186 207 q 224 306 206 283 q 275 346 242 328 q 357 371 308 364 q 262 403 299 379 q 208 467 225 426 q 187 546 192 507 q 182 644 182 585 l 182 733 q 143 878 182 833 q 3 932 104 922 l 3 1004 q 232 917 169 993 q 294 675 294 840 l 294 608 q 324 456 294 499 q 460 400 353 413 l 460 342 z "},"~":{"ha":833,"x_min":53,"x_max":781,"o":"m 781 458 q 726 317 771 367 q 606 268 681 268 q 414 317 560 268 q 365 333 396 322 q 319 348 333 343 q 284 359 304 353 q 250 367 264 365 q 224 369 236 369 q 152 338 182 369 q 115 258 122 307 l 53 258 q 103 396 60 340 q 226 451 147 451 q 279 445 249 451 q 329 433 310 439 q 386 414 349 426 q 435 397 424 401 q 474 384 443 394 q 524 367 506 374 q 568 356 542 361 q 613 350 594 350 q 685 381 657 350 q 721 458 714 413 l 781 458 z "},"£":{"ha":772,"x_min":65,"x_max":754,"o":"m 726 672 l 606 672 q 550 834 600 774 q 400 894 500 894 q 260 844 315 894 q 204 715 204 793 q 212 659 204 688 q 227 614 219 631 q 253 564 235 597 q 278 518 271 531 l 499 518 l 499 458 l 308 458 q 335 349 335 400 q 326 279 335 311 q 297 219 318 247 q 263 175 276 192 q 217 130 249 158 q 176 92 186 101 q 332 135 265 135 q 446 115 385 135 q 561 89 535 89 q 696 139 638 89 l 754 47 q 665 -5 721 14 q 558 -24 610 -24 q 527 -22 542 -24 q 494 -15 513 -21 q 468 -8 475 -10 q 435 3 461 -6 q 406 14 410 13 q 274 40 326 40 q 201 27 232 40 q 129 -15 171 14 l 65 83 q 174 190 132 128 q 217 324 217 253 q 181 458 217 389 l 65 458 l 65 518 l 146 518 q 82 714 82 625 q 171 920 82 840 q 401 1000 260 1000 q 638 915 549 1000 q 726 686 726 829 l 726 672 z "},"¤":{"ha":772,"x_min":64,"x_max":708,"o":"m 64 228 l 153 317 q 93 494 93 393 q 153 672 93 600 l 64 761 l 119 817 l 208 728 q 388 788 285 788 q 564 728 478 788 l 653 817 l 708 761 l 619 672 q 679 494 679 603 q 619 318 679 400 l 708 228 l 653 172 l 563 261 q 486 219 538 236 q 386 201 435 201 q 210 261 289 201 l 119 172 l 64 228 m 534 642 q 503 672 534 642 q 386 703 472 703 q 239 642 300 703 q 178 494 178 581 q 239 347 178 408 q 386 285 300 285 q 534 347 472 285 q 596 494 596 408 q 534 642 596 581 z "},"¦":{"ha":308,"x_min":108,"x_max":200,"o":"m 108 -124 l 108 224 l 200 224 l 200 -124 l 108 -124 m 108 571 l 108 918 l 200 918 l 200 571 l 108 571 z "},"§":{"ha":772,"x_min":51,"x_max":717,"o":"m 644 757 l 528 757 q 385 904 515 904 q 290 874 326 904 q 253 793 253 843 q 256 767 253 779 q 265 742 258 754 q 278 721 272 731 q 300 699 285 711 q 326 680 315 688 q 359 658 336 672 q 396 636 382 644 q 440 610 410 628 q 490 582 471 593 q 650 474 610 514 q 717 321 717 407 q 572 114 717 181 q 650 -40 650 49 q 578 -205 650 -142 q 392 -268 507 -268 q 195 -200 268 -268 q 117 -12 122 -132 l 235 -12 q 396 -169 247 -169 q 493 -137 456 -169 q 531 -53 531 -104 q 523 -15 531 -33 q 498 22 515 4 q 466 54 481 40 q 424 85 451 68 q 383 110 396 103 q 342 134 371 118 q 310 151 313 150 q 265 176 301 157 q 218 203 229 196 q 177 230 207 210 q 135 262 147 250 q 103 296 124 274 q 74 338 82 318 q 58 384 65 357 q 51 440 51 411 q 92 569 51 513 q 199 642 132 625 q 135 785 135 707 q 205 942 135 882 q 389 1003 275 1003 q 576 938 508 1003 q 644 757 644 872 m 263 582 q 163 451 163 536 q 165 428 163 439 q 171 408 168 417 q 181 388 174 399 q 193 372 189 378 q 209 356 197 365 q 226 342 221 346 q 245 328 231 338 q 263 317 260 319 q 283 305 267 314 q 301 294 299 296 q 503 172 458 201 q 576 225 550 190 q 603 300 603 260 q 592 352 603 329 q 552 399 581 375 q 513 429 524 422 q 463 460 501 436 q 263 582 279 568 z "},"©":{"ha":1111,"x_min":38,"x_max":1074,"o":"m 190 861 q 266 937 190 861 q 556 1013 342 1013 q 922 861 769 1013 q 1074 496 1074 710 q 922 129 1074 281 q 556 -22 769 -22 q 190 129 342 -22 q 38 496 38 281 q 190 861 38 710 m 884 823 q 816 891 884 823 q 556 958 749 958 q 227 823 363 958 q 92 496 92 688 q 227 167 92 303 q 556 32 363 32 q 883 167 747 32 q 1019 496 1019 303 q 884 823 1019 688 m 807 392 q 728 250 796 304 q 565 196 661 196 q 364 276 439 196 q 289 493 289 357 q 365 715 289 629 q 560 801 440 801 q 728 742 658 801 q 804 594 797 683 l 731 594 q 673 697 718 660 q 563 735 628 735 q 425 669 476 735 q 374 496 374 604 q 427 325 374 389 q 569 261 481 261 q 677 296 633 261 q 735 392 721 331 l 807 392 z "},"«":{"ha":643,"x_min":69,"x_max":554,"o":"m 554 593 l 554 472 l 415 367 l 554 258 l 554 140 l 343 307 l 343 428 l 554 593 m 285 593 l 285 475 l 142 368 l 285 260 l 285 139 l 69 310 l 69 428 l 285 593 z "},"¬":{"ha":833,"x_min":68,"x_max":765,"o":"m 68 450 l 68 533 l 765 533 l 765 185 l 679 185 l 679 450 l 68 450 z "},"®":{"ha":556,"x_min":25,"x_max":532,"o":"m 278 1013 q 458 938 383 1013 q 532 757 532 863 q 458 577 532 651 q 279 503 383 503 q 99 577 174 503 q 25 757 25 651 q 99 938 25 863 q 278 1013 174 1013 m 278 972 q 127 909 190 972 q 64 757 64 846 q 127 605 64 668 q 279 542 190 542 q 430 605 367 542 q 493 757 493 668 q 430 909 493 846 q 278 972 367 972 m 179 890 l 275 890 q 394 814 394 890 q 346 750 394 768 q 390 667 390 731 q 399 629 390 646 l 349 629 q 342 658 342 643 q 327 718 342 706 q 264 731 313 731 l 226 731 l 226 629 l 179 629 l 179 890 m 226 769 l 274 769 q 346 811 346 769 q 340 834 346 825 q 320 847 333 843 q 298 851 307 850 q 272 851 289 851 l 226 851 l 226 769 z "},"°":{"ha":556,"x_min":68,"x_max":488,"o":"m 129 924 q 160 955 129 924 q 278 986 190 986 q 426 924 365 986 q 488 776 488 863 q 426 627 488 689 q 278 565 365 565 q 129 627 190 565 q 68 776 68 689 q 129 924 68 863 m 371 869 q 351 889 371 869 q 278 908 332 908 q 185 869 224 908 q 146 776 146 831 q 185 683 146 721 q 278 644 224 644 q 371 683 332 644 q 410 776 410 721 q 371 869 410 831 z "},"±":{"ha":833,"x_min":68,"x_max":765,"o":"m 371 129 l 371 369 l 68 369 l 68 453 l 371 453 l 371 694 l 463 694 l 463 453 l 765 453 l 765 369 l 463 369 l 463 129 l 371 129 m 68 -14 l 68 69 l 765 69 l 765 -14 l 68 -14 z "},"µ":{"ha":772,"x_min":88,"x_max":683,"o":"m 88 -276 l 88 717 l 206 717 l 206 406 q 206 347 206 365 q 209 289 206 329 q 218 228 213 249 q 236 177 224 207 q 267 133 249 147 q 313 106 285 118 q 376 94 340 94 q 463 115 426 94 q 519 166 500 136 q 549 242 538 196 q 563 326 560 289 q 565 411 565 363 l 565 717 l 683 717 l 683 0 l 574 0 l 574 111 q 486 14 529 44 q 372 -17 443 -17 q 276 7 310 -17 q 206 88 242 31 l 206 -276 l 88 -276 z "},"¶":{"ha":833,"x_min":51,"x_max":758,"o":"m 758 915 l 683 915 l 683 -244 l 594 -244 l 594 915 l 425 915 l 425 -244 l 336 -244 l 336 360 q 127 450 203 369 q 51 665 51 531 q 151 906 51 822 q 408 989 250 989 l 758 989 l 758 915 z "},"·":{"ha":386,"x_min":115,"x_max":269,"o":"m 269 483 l 269 329 l 115 329 l 115 483 l 269 483 z "},"»":{"ha":643,"x_min":88,"x_max":574,"o":"m 358 596 l 574 424 l 574 306 l 358 140 l 358 258 l 500 364 l 358 474 l 358 596 m 88 593 l 299 425 l 299 307 l 88 143 l 88 261 l 226 365 l 88 474 l 88 593 z "},"÷":{"ha":833,"x_min":68,"x_max":765,"o":"m 68 307 l 68 389 l 765 389 l 765 307 l 68 307 m 350 33 l 350 189 l 483 189 l 483 33 l 350 33 m 350 522 l 350 679 l 483 679 l 483 522 l 350 522 z "},"ƒ":{"ha":772,"x_min":7,"x_max":683,"o":"m 594 621 l 576 528 l 433 528 l 343 42 q 316 -72 331 -29 q 274 -155 301 -114 q 201 -214 247 -196 q 88 -232 156 -232 q 7 -228 67 -232 l 25 -126 q 76 -129 72 -129 q 142 -119 117 -129 q 183 -83 168 -110 q 203 -36 197 -56 q 218 33 208 -17 l 314 528 l 186 528 l 206 621 l 332 621 l 358 767 q 436 937 379 885 q 606 989 493 989 q 683 985 649 989 l 663 883 q 604 888 621 888 q 520 858 549 888 q 478 760 492 829 l 450 621 l 594 621 z "},"Ё":{"ha":849,"x_min":110,"x_max":801,"o":"m 794 989 l 794 875 l 240 875 l 240 565 l 758 565 l 758 456 l 240 456 l 240 114 l 801 114 l 801 0 l 110 0 l 110 989 l 794 989 m 650 1214 l 650 1074 l 525 1074 l 525 1214 l 650 1214 m 388 1214 l 388 1074 l 261 1074 l 261 1214 l 388 1214 z "},"Ђ":{"ha":1036,"x_min":1,"x_max":988,"o":"m 988 236 q 883 -62 988 63 q 615 -187 778 -187 l 597 -187 l 597 -75 q 789 19 722 -67 q 856 236 856 106 q 799 433 856 363 q 640 504 742 504 q 480 433 539 504 q 421 238 421 363 l 421 0 l 290 0 l 290 875 l 1 875 l 1 989 l 793 989 l 793 875 l 421 875 l 421 500 l 424 500 q 518 585 454 556 q 657 614 582 614 q 897 511 807 614 q 988 236 988 408 z "},"Ѓ":{"ha":760,"x_min":110,"x_max":760,"o":"m 581 1240 l 414 1043 l 322 1043 l 435 1240 l 581 1240 m 240 0 l 110 0 l 110 989 l 760 989 l 760 875 l 240 875 l 240 0 z "},"Є":{"ha":1003,"x_min":57,"x_max":940,"o":"m 940 343 q 803 73 915 169 q 515 -24 692 -24 q 181 116 304 -24 q 57 493 57 256 q 181 863 57 715 q 525 1011 306 1011 q 798 929 679 1011 q 933 701 917 847 l 801 701 q 703 847 778 794 q 522 899 629 899 q 295 808 378 899 q 194 574 213 717 l 669 574 l 669 464 l 189 464 q 285 189 197 289 q 521 89 374 89 q 713 154 639 89 q 808 343 786 219 l 940 343 z "},"Ѕ":{"ha":900,"x_min":54,"x_max":849,"o":"m 810 699 l 683 699 q 438 900 663 900 q 272 857 331 900 q 214 736 214 814 q 222 688 214 708 q 251 651 231 667 q 289 624 271 635 q 346 601 307 613 q 408 585 385 590 q 482 569 432 581 q 583 547 543 557 q 679 513 624 536 q 767 460 735 489 q 824 385 800 432 q 849 278 849 338 q 790 103 849 174 q 649 6 732 33 q 464 -22 565 -22 q 166 66 278 -22 q 54 326 54 154 l 181 326 q 265 142 185 200 q 475 85 346 85 q 649 127 576 85 q 721 265 721 169 q 701 341 721 310 q 640 392 682 372 q 557 425 599 413 q 447 453 515 438 q 433 456 438 454 q 233 511 281 490 q 89 726 89 574 q 194 938 89 868 q 447 1008 299 1008 q 707 931 610 1008 q 810 699 804 853 z "},"І":{"ha":360,"x_min":115,"x_max":246,"o":"m 246 989 l 246 0 l 115 0 l 115 989 l 246 989 z "},"Ї":{"ha":360,"x_min":-12,"x_max":375,"o":"m 246 989 l 246 0 l 115 0 l 115 989 l 246 989 m 375 1214 l 375 1074 l 250 1074 l 250 1214 l 375 1214 m 113 1214 l 113 1074 l -12 1074 l -12 1214 l 113 1214 z "},"Ј":{"ha":721,"x_min":35,"x_max":615,"o":"m 615 989 l 615 304 q 602 174 615 229 q 558 72 589 118 q 471 1 528 25 q 331 -24 414 -24 q 104 54 174 -24 q 35 288 35 132 q 36 325 35 307 l 163 325 l 163 290 q 197 138 163 190 q 329 85 231 85 q 403 99 374 85 q 449 131 433 113 q 474 185 465 150 q 483 246 482 219 q 485 317 485 272 l 485 989 l 615 989 z "},"Љ":{"ha":1389,"x_min":0,"x_max":1336,"o":"m 1257 513 q 1297 474 1257 513 q 1336 296 1336 436 q 1256 78 1336 156 q 1032 0 1176 0 l 651 0 l 651 875 l 343 875 l 324 318 q 260 71 318 163 q 94 -21 203 -21 q 0 -1 44 -21 l 0 110 q 71 96 22 96 q 135 115 111 96 q 178 200 160 133 q 200 386 197 267 l 218 989 l 782 989 l 782 589 l 1032 589 q 1257 513 1178 589 m 1204 296 q 988 475 1204 475 l 782 475 l 782 114 l 988 114 q 1204 296 1204 114 z "},"Њ":{"ha":1389,"x_min":110,"x_max":1336,"o":"m 660 478 l 240 478 l 240 0 l 110 0 l 110 992 l 240 992 l 240 589 l 660 589 l 660 992 l 790 992 l 790 589 l 1032 589 q 1257 512 1178 589 q 1336 294 1336 435 q 1256 77 1336 154 q 1032 0 1176 0 l 660 0 l 660 478 m 1204 294 q 988 478 1204 478 l 790 478 l 790 114 l 988 114 q 1204 294 1204 114 z "},"Ћ":{"ha":1036,"x_min":1,"x_max":975,"o":"m 421 0 l 290 0 l 290 875 l 1 875 l 1 989 l 793 989 l 793 875 l 421 875 l 421 572 l 464 583 q 524 599 507 594 q 578 608 542 603 q 642 614 614 614 q 975 313 975 614 l 975 0 l 843 0 l 843 301 q 842 353 843 333 q 829 405 840 374 q 799 453 818 436 q 739 485 779 471 q 642 499 699 499 q 585 496 613 499 q 531 488 557 493 q 491 478 506 482 q 451 467 476 475 q 421 458 426 460 l 421 0 z "},"Ќ":{"ha":926,"x_min":110,"x_max":929,"o":"m 913 989 l 496 592 l 929 0 l 763 0 l 404 503 l 240 347 l 240 0 l 110 0 l 110 989 l 240 989 l 240 499 l 742 989 l 913 989 m 636 1240 l 469 1043 l 378 1043 l 490 1240 l 636 1240 z "},"Ў":{"ha":849,"x_min":-1,"x_max":854,"o":"m 642 1249 q 574 1109 628 1161 q 433 1057 521 1057 q 291 1110 349 1057 q 222 1249 233 1164 l 293 1249 q 432 1140 325 1140 q 571 1249 535 1140 l 642 1249 m 360 258 l -1 989 l 142 989 l 431 386 l 714 989 l 854 989 l 469 201 q 347 28 410 79 q 207 -24 283 -24 q 85 1 140 -24 l 85 113 q 196 88 125 88 q 343 224 278 88 l 360 258 z "},"Џ":{"ha":1003,"x_min":110,"x_max":893,"o":"m 568 0 l 568 -246 l 438 -246 l 438 0 l 110 0 l 110 989 l 240 989 l 240 114 l 763 114 l 763 989 l 893 989 l 893 0 l 568 0 z "},"А":{"ha":900,"x_min":-11,"x_max":911,"o":"m 525 989 l 911 0 l 765 0 l 656 303 l 240 303 l 128 0 l -11 0 l 378 989 l 525 989 m 617 407 l 449 864 l 278 407 l 617 407 z "},"Б":{"ha":951,"x_min":110,"x_max":875,"o":"m 240 589 l 571 589 q 796 511 717 589 q 875 293 875 433 q 795 77 875 154 q 571 0 715 0 l 110 0 l 110 989 l 788 989 l 788 875 l 240 875 l 240 589 m 744 293 q 528 475 744 475 l 240 475 l 240 114 l 528 114 q 744 293 744 114 z "},"В":{"ha":951,"x_min":110,"x_max":892,"o":"m 110 989 l 532 989 q 758 929 668 989 q 847 742 847 869 q 808 610 847 668 q 701 529 768 553 q 842 443 793 508 q 892 279 892 378 q 517 0 892 0 l 110 0 l 110 989 m 238 878 l 238 565 l 472 565 q 541 567 513 565 q 606 578 569 569 q 663 602 642 586 q 701 649 685 618 q 717 722 717 679 q 703 795 717 765 q 669 841 689 825 q 616 865 650 857 q 555 876 582 874 q 485 878 528 878 l 238 878 m 238 463 l 238 110 l 499 110 q 578 112 547 110 q 647 124 608 114 q 707 152 685 133 q 744 206 729 171 q 760 292 760 242 q 749 364 760 333 q 715 413 739 394 q 669 442 690 431 q 607 457 647 453 q 544 462 567 461 q 476 463 522 463 l 238 463 z "},"Г":{"ha":760,"x_min":110,"x_max":760,"o":"m 240 0 l 110 0 l 110 989 l 760 989 l 760 875 l 240 875 l 240 0 z "},"Д":{"ha":1003,"x_min":13,"x_max":981,"o":"m 981 -246 l 854 -246 l 854 0 l 139 0 l 139 -246 l 13 -246 l 13 114 l 110 114 q 203 405 167 215 q 239 797 239 594 l 239 989 l 871 989 l 871 114 l 981 114 l 981 -246 m 740 114 l 740 875 l 367 875 l 367 740 q 334 385 367 561 q 254 114 301 210 l 740 114 z "},"Е":{"ha":849,"x_min":110,"x_max":801,"o":"m 794 989 l 794 875 l 240 875 l 240 565 l 758 565 l 758 456 l 240 456 l 240 114 l 801 114 l 801 0 l 110 0 l 110 989 l 794 989 z "},"Ж":{"ha":1389,"x_min":-11,"x_max":1400,"o":"m 1400 0 l 1236 0 l 875 492 l 758 369 l 758 0 l 631 0 l 631 369 l 514 492 l 153 0 l -11 0 l 428 583 l 33 989 l 197 989 l 631 529 l 631 989 l 758 989 l 758 529 l 1192 989 l 1356 989 l 961 583 l 1400 0 z "},"З":{"ha":900,"x_min":51,"x_max":846,"o":"m 846 289 q 824 188 846 240 q 758 88 801 136 q 638 8 715 39 q 461 -22 560 -22 q 163 66 275 -22 q 51 326 51 154 l 178 326 q 263 142 182 200 q 472 85 343 85 q 646 142 576 85 q 715 292 715 199 q 696 379 715 343 q 639 433 676 415 q 560 458 601 451 q 465 465 519 465 q 376 463 418 465 l 376 571 q 465 568 399 568 q 681 746 681 568 q 468 904 681 904 q 222 703 243 904 l 96 703 q 204 934 101 856 q 472 1013 307 1013 q 717 946 624 1013 q 811 746 811 879 q 763 610 811 671 q 647 531 714 550 l 647 526 q 794 442 742 508 q 846 289 846 375 z "},"И":{"ha":1003,"x_min":110,"x_max":893,"o":"m 110 0 l 110 989 l 240 989 l 240 151 l 243 151 l 728 989 l 893 989 l 893 0 l 763 0 l 763 840 l 760 840 l 274 0 l 110 0 z "},"Й":{"ha":1003,"x_min":110,"x_max":893,"o":"m 710 1249 q 642 1109 696 1161 q 501 1057 589 1057 q 359 1110 417 1057 q 290 1249 301 1164 l 361 1249 q 500 1140 393 1140 q 639 1249 603 1140 l 710 1249 m 110 0 l 110 989 l 240 989 l 240 151 l 243 151 l 728 989 l 893 989 l 893 0 l 763 0 l 763 840 l 760 840 l 274 0 l 110 0 z "},"К":{"ha":926,"x_min":110,"x_max":929,"o":"m 913 989 l 496 592 l 929 0 l 763 0 l 404 503 l 240 347 l 240 0 l 110 0 l 110 989 l 240 989 l 240 499 l 742 989 l 913 989 z "},"Л":{"ha":951,"x_min":0,"x_max":839,"o":"m 839 989 l 839 0 l 708 0 l 708 875 l 343 875 l 324 318 q 260 71 318 163 q 94 -21 203 -21 q 0 -1 50 -21 l 0 110 q 71 96 22 96 q 135 115 111 96 q 178 200 160 133 q 200 386 197 267 l 218 989 l 839 989 z "},"М":{"ha":1210,"x_min":111,"x_max":1099,"o":"m 111 989 l 292 989 l 610 151 l 917 989 l 1099 989 l 1099 0 l 975 0 l 975 825 l 665 0 l 551 0 l 236 825 l 236 0 l 111 0 l 111 989 z "},"Н":{"ha":1003,"x_min":110,"x_max":893,"o":"m 893 989 l 893 0 l 763 0 l 763 463 l 240 463 l 240 0 l 110 0 l 110 989 l 240 989 l 240 576 l 763 576 l 763 989 l 893 989 z "},"О":{"ha":1056,"x_min":54,"x_max":1001,"o":"m 526 1013 q 876 872 751 1013 q 1001 503 1001 731 q 878 125 1001 274 q 528 -24 754 -24 q 321 18 413 -24 q 172 133 229 60 q 84 301 114 207 q 54 506 54 396 q 183 875 54 738 q 526 1013 311 1013 m 526 899 q 273 783 361 899 q 185 496 185 667 q 278 199 185 310 q 529 89 372 89 q 778 200 685 89 q 871 496 871 311 q 777 789 871 679 q 526 899 683 899 z "},"П":{"ha":1003,"x_min":110,"x_max":893,"o":"m 893 989 l 893 0 l 763 0 l 763 875 l 240 875 l 240 0 l 110 0 l 110 989 l 893 989 z "},"Р":{"ha":900,"x_min":115,"x_max":851,"o":"m 115 989 l 522 989 q 763 920 674 989 q 851 704 851 851 q 514 406 851 406 l 246 406 l 246 0 l 115 0 l 115 989 m 246 876 l 246 515 l 497 515 q 662 555 603 515 q 721 696 721 594 q 702 790 721 753 q 647 846 683 828 q 572 870 611 864 q 479 876 533 876 l 246 876 z "},"С":{"ha":1003,"x_min":61,"x_max":947,"o":"m 947 374 q 817 81 931 186 q 519 -24 704 -24 q 185 116 308 -24 q 61 493 61 256 q 185 863 61 715 q 529 1011 310 1011 q 806 926 686 1011 q 939 692 925 842 l 808 692 q 711 844 786 789 q 526 899 636 899 q 277 782 361 899 q 193 494 193 665 q 282 197 193 306 q 525 89 371 89 q 726 162 651 89 q 817 374 801 235 l 947 374 z "},"Т":{"ha":797,"x_min":1,"x_max":796,"o":"m 796 989 l 796 875 l 464 875 l 464 0 l 333 0 l 333 875 l 1 875 l 1 989 l 796 989 z "},"У":{"ha":849,"x_min":-1,"x_max":854,"o":"m 360 258 l -1 989 l 142 989 l 431 386 l 714 989 l 854 989 l 469 201 q 347 28 410 79 q 207 -24 283 -24 q 85 1 140 -24 l 85 113 q 196 88 125 88 q 343 224 278 88 l 360 258 z "},"Ф":{"ha":1081,"x_min":42,"x_max":1036,"o":"m 1036 499 q 911 217 1036 315 q 604 119 786 119 l 604 0 l 474 0 l 474 119 q 167 219 293 119 q 42 499 42 319 q 168 781 42 678 q 474 885 294 885 l 474 989 l 604 989 l 604 885 q 911 782 786 885 q 1036 499 1036 679 m 904 499 q 822 701 904 631 q 604 778 739 771 l 604 226 q 823 302 742 236 q 904 499 904 368 m 474 226 l 474 778 q 256 701 339 771 q 174 499 174 631 q 255 302 174 368 q 474 226 336 236 z "},"Х":{"ha":849,"x_min":-7,"x_max":844,"o":"m 826 989 l 497 510 l 844 0 l 686 0 l 419 407 l 143 0 l -7 0 l 342 510 l 15 989 l 172 989 l 421 608 l 678 989 l 826 989 z "},"Ц":{"ha":1003,"x_min":101,"x_max":982,"o":"m 856 -246 l 856 0 l 101 0 l 101 989 l 232 989 l 232 114 l 743 114 l 743 989 l 874 989 l 874 114 l 982 114 l 982 -246 l 856 -246 z "},"Ч":{"ha":926,"x_min":65,"x_max":818,"o":"m 818 0 l 688 0 l 688 440 q 413 406 536 406 q 260 427 326 406 q 159 480 194 449 q 101 554 124 511 q 72 633 79 597 q 65 707 65 668 l 65 989 l 196 989 l 196 718 q 199 666 196 689 q 215 615 203 643 q 250 567 228 586 q 314 534 272 547 q 413 521 356 521 q 688 554 538 521 l 688 989 l 818 989 l 818 0 z "},"Ш":{"ha":1490,"x_min":110,"x_max":1379,"o":"m 110 0 l 110 989 l 240 989 l 240 114 l 679 114 l 679 989 l 810 989 l 810 114 l 1249 114 l 1249 989 l 1379 989 l 1379 0 l 110 0 z "},"Щ":{"ha":1504,"x_min":101,"x_max":1483,"o":"m 1356 0 l 101 0 l 101 989 l 232 989 l 232 114 l 671 114 l 671 989 l 801 989 l 801 114 l 1240 114 l 1240 989 l 1371 989 l 1371 114 l 1483 114 l 1483 -246 l 1356 -246 l 1356 0 z "},"Ъ":{"ha":1115,"x_min":3,"x_max":1063,"o":"m 325 875 l 3 875 l 3 989 l 456 989 l 456 589 l 758 589 q 983 511 904 589 q 1063 293 1063 433 q 983 77 1063 154 q 758 0 903 0 l 325 0 l 325 875 m 931 293 q 714 475 931 475 l 456 475 l 456 114 l 714 114 q 931 293 931 114 z "},"Ы":{"ha":1210,"x_min":110,"x_max":1101,"o":"m 971 989 l 1101 989 l 1101 0 l 971 0 l 971 989 m 847 293 q 767 77 847 154 q 543 0 688 0 l 110 0 l 110 989 l 240 989 l 240 588 l 543 588 q 768 510 689 588 q 847 293 847 433 m 715 293 q 499 475 715 475 l 240 475 l 240 114 l 499 114 q 715 293 715 114 z "},"Ь":{"ha":900,"x_min":110,"x_max":847,"o":"m 847 293 q 767 77 847 154 q 543 0 688 0 l 110 0 l 110 989 l 240 989 l 240 588 l 543 588 q 768 510 689 588 q 847 293 847 433 m 715 293 q 499 475 715 475 l 240 475 l 240 114 l 499 114 q 715 293 715 114 z "},"Э":{"ha":1003,"x_min":58,"x_max":942,"o":"m 942 493 q 813 118 942 260 q 483 -24 683 -24 q 195 73 307 -24 q 58 343 83 169 l 190 343 q 286 154 213 219 q 478 89 360 89 q 710 190 619 89 q 810 464 801 290 l 329 464 l 329 574 l 804 574 q 706 808 786 717 q 481 899 625 899 q 297 846 372 899 q 197 701 221 793 l 65 701 q 140 871 76 799 q 291 977 203 943 q 478 1011 379 1011 q 822 865 701 1011 q 942 493 942 718 z "},"Ю":{"ha":1389,"x_min":110,"x_max":1335,"o":"m 426 463 l 240 463 l 240 0 l 110 0 l 110 989 l 240 989 l 240 576 l 429 576 q 569 895 449 778 q 879 1013 689 1013 q 1215 872 1094 1013 q 1335 503 1335 731 q 1216 125 1335 274 q 881 -24 1097 -24 q 556 113 674 -24 q 426 463 439 250 m 1204 496 q 1116 789 1204 679 q 879 899 1028 899 q 640 783 724 899 q 557 496 557 667 q 645 200 557 311 q 882 89 733 89 q 1116 200 1028 89 q 1204 496 1204 311 z "},"Я":{"ha":926,"x_min":-6,"x_max":817,"o":"m 482 422 l 156 0 l -6 0 l 325 426 q 143 513 207 442 q 79 706 79 583 q 162 916 79 843 q 392 989 244 989 l 817 989 l 817 0 l 686 0 l 686 422 l 482 422 m 686 533 l 686 878 l 436 878 q 211 706 211 878 q 436 533 211 533 l 686 533 z "},"а":{"ha":746,"x_min":50,"x_max":724,"o":"m 724 94 l 724 3 q 643 -11 688 -11 q 539 94 542 -11 q 279 -19 438 -19 q 112 35 174 -19 q 50 183 50 89 q 304 407 50 375 q 478 433 454 425 q 532 503 528 450 q 533 521 533 511 q 371 639 533 639 q 244 605 288 639 q 193 493 201 571 l 78 493 q 160 672 81 608 q 378 736 239 736 q 603 667 529 736 q 638 608 626 644 q 650 549 649 572 q 651 481 651 526 q 649 320 651 426 q 646 161 646 214 q 656 106 646 122 q 694 90 667 90 q 724 94 706 90 m 533 372 q 507 356 521 363 q 472 344 493 349 q 442 338 450 340 q 406 333 435 336 q 375 329 376 329 q 319 322 332 324 q 269 310 306 319 q 217 288 232 300 q 187 251 201 275 q 172 193 172 226 q 210 106 172 138 q 315 74 249 74 q 467 124 400 74 q 533 242 533 174 l 533 372 z "},"б":{"ha":797,"x_min":69,"x_max":746,"o":"m 156 817 q 269 926 203 890 q 439 968 336 961 q 579 990 554 976 q 604 1013 596 999 l 722 1013 q 710 972 718 990 q 694 941 703 954 q 669 917 685 928 q 642 898 653 906 q 609 884 631 890 q 575 874 588 878 q 537 868 563 871 q 500 864 511 865 q 460 861 489 863 q 422 858 431 860 q 244 770 308 850 q 164 557 181 690 l 168 557 q 265 675 199 631 q 419 719 332 719 q 659 623 572 719 q 746 353 746 526 q 658 75 746 174 q 410 -24 569 -24 q 189 53 279 -24 q 78 275 99 131 q 69 406 69 333 q 156 817 69 685 m 190 349 q 249 151 190 226 q 411 76 308 76 q 568 149 511 76 q 625 350 625 221 q 567 549 625 476 q 408 621 508 621 q 249 548 308 621 q 190 349 190 475 z "},"в":{"ha":746,"x_min":86,"x_max":694,"o":"m 86 0 l 86 717 l 418 717 q 539 705 489 717 q 626 653 589 693 q 664 543 664 613 q 558 389 664 438 l 558 388 q 658 328 622 375 q 694 211 694 282 q 633 60 694 119 q 476 0 572 0 l 86 0 m 406 428 q 510 452 479 428 q 542 524 542 476 q 511 593 542 571 q 406 615 481 615 l 201 615 l 201 428 l 406 428 m 201 328 l 201 101 l 454 101 q 541 135 510 101 q 572 221 572 168 q 433 328 572 328 l 201 328 z "},"г":{"ha":583,"x_min":92,"x_max":583,"o":"m 583 613 l 210 613 l 210 0 l 92 0 l 92 717 l 583 717 l 583 613 z "},"д":{"ha":797,"x_min":11,"x_max":783,"o":"m 783 -228 l 671 -228 l 671 0 l 124 0 l 124 -228 l 11 -228 l 11 104 l 89 104 q 151 302 122 168 q 179 564 179 436 l 179 717 l 690 717 l 690 104 l 783 104 l 783 -228 m 572 104 l 572 613 l 294 613 l 294 553 q 269 297 294 426 q 211 104 243 167 l 572 104 z "},"е":{"ha":746,"x_min":51,"x_max":710,"o":"m 701 226 q 389 -24 647 -24 q 141 75 231 -24 q 51 349 51 174 q 144 630 51 522 q 385 738 236 738 q 630 626 550 738 q 710 343 710 514 l 710 326 l 171 326 l 169 318 q 229 139 169 204 q 393 74 289 74 q 516 110 471 74 q 586 226 561 146 l 701 226 m 588 422 q 525 583 579 525 q 382 640 471 640 q 239 582 296 640 q 171 422 182 524 l 588 422 z "},"ж":{"ha":1081,"x_min":0,"x_max":1079,"o":"m 392 347 l 146 0 l 0 0 l 314 422 l 40 717 l 186 717 l 478 388 l 481 388 l 481 717 l 599 717 l 599 388 l 601 388 l 893 717 l 1039 717 l 765 422 l 1079 0 l 933 0 l 688 347 l 599 257 l 599 0 l 481 0 l 481 257 l 392 347 z "},"з":{"ha":694,"x_min":36,"x_max":644,"o":"m 49 510 q 142 685 57 632 q 351 738 226 738 q 545 689 469 738 q 621 544 621 640 q 587 444 621 486 q 506 393 553 403 l 506 390 q 603 334 563 379 q 644 213 644 289 q 557 40 644 101 q 347 -22 469 -22 q 124 42 207 -22 q 36 224 42 107 l 156 224 q 213 111 161 149 q 346 74 264 74 q 475 113 428 74 q 522 210 522 153 q 369 326 522 326 l 271 326 l 271 422 l 350 422 q 460 451 418 422 q 501 539 501 479 q 460 611 501 581 q 350 642 419 642 q 227 610 279 642 q 168 510 175 578 l 49 510 z "},"и":{"ha":772,"x_min":89,"x_max":683,"o":"m 240 0 l 89 0 l 89 717 l 207 717 l 207 132 l 210 132 l 532 717 l 683 717 l 683 0 l 565 0 l 565 585 l 563 585 l 240 0 z "},"й":{"ha":772,"x_min":89,"x_max":683,"o":"m 596 989 q 528 849 582 901 q 388 797 475 797 q 245 851 303 797 q 176 989 188 904 l 247 989 q 386 881 279 881 q 525 989 489 881 l 596 989 m 240 0 l 89 0 l 89 717 l 207 717 l 207 132 l 210 132 l 532 717 l 683 717 l 683 0 l 565 0 l 565 585 l 563 585 l 240 0 z "},"к":{"ha":721,"x_min":89,"x_max":731,"o":"m 731 0 l 581 0 l 319 353 l 207 243 l 207 0 l 89 0 l 89 717 l 207 717 l 207 375 l 535 717 l 693 717 l 404 435 l 731 0 z "},"л":{"ha":772,"x_min":19,"x_max":686,"o":"m 686 717 l 686 0 l 568 0 l 568 613 l 313 613 l 303 296 q 243 58 299 132 q 104 -15 188 -15 q 19 0 53 -15 l 19 96 q 82 86 38 86 q 153 131 124 86 q 186 283 183 176 l 199 717 l 686 717 z "},"м":{"ha":951,"x_min":88,"x_max":865,"o":"m 865 0 l 747 0 l 747 565 l 743 565 l 531 0 l 422 0 l 210 565 l 206 565 l 206 0 l 88 0 l 88 717 l 257 717 l 475 136 l 478 136 l 696 717 l 865 717 l 865 0 z "},"н":{"ha":772,"x_min":89,"x_max":683,"o":"m 207 0 l 89 0 l 89 717 l 207 717 l 207 432 l 565 432 l 565 717 l 683 717 l 683 0 l 565 0 l 565 328 l 207 328 l 207 0 z "},"о":{"ha":797,"x_min":51,"x_max":746,"o":"m 146 635 q 193 686 146 635 q 403 738 240 738 q 656 639 565 738 q 746 363 746 540 q 656 79 746 181 q 401 -22 565 -22 q 144 78 238 -22 q 51 356 51 178 q 146 635 51 532 m 565 563 q 534 601 565 563 q 400 639 504 639 q 235 563 296 639 q 174 358 174 486 q 234 152 174 226 q 403 78 294 78 q 566 153 507 78 q 625 360 625 228 q 565 563 625 488 z "},"п":{"ha":772,"x_min":89,"x_max":683,"o":"m 207 0 l 89 0 l 89 717 l 683 717 l 683 0 l 565 0 l 565 613 l 207 613 l 207 0 z "},"р":{"ha":824,"x_min":89,"x_max":768,"o":"m 200 717 l 200 615 q 442 739 278 739 q 680 638 592 739 q 768 363 768 536 q 681 85 768 189 q 447 -18 594 -18 q 207 100 293 -18 l 207 -276 l 89 -276 l 89 717 l 200 717 m 424 640 q 262 566 321 640 q 203 361 203 492 q 263 156 203 231 q 428 82 324 82 q 588 157 529 82 q 646 361 646 232 q 587 566 646 492 q 424 640 528 640 z "},"с":{"ha":746,"x_min":53,"x_max":706,"o":"m 706 261 q 608 56 690 132 q 393 -21 525 -21 q 142 80 231 -21 q 53 349 53 181 q 146 633 53 528 q 397 738 239 738 q 608 672 529 738 q 701 483 688 606 l 579 483 q 399 639 547 639 q 236 563 296 639 q 176 358 176 488 q 233 153 176 228 q 390 78 290 78 q 522 125 471 78 q 586 261 572 172 l 706 261 z "},"т":{"ha":643,"x_min":6,"x_max":638,"o":"m 638 613 l 381 613 l 381 0 l 263 0 l 263 613 l 6 613 l 6 717 l 638 717 l 638 613 z "},"у":{"ha":694,"x_min":11,"x_max":682,"o":"m 682 717 l 375 -92 q 344 -167 357 -140 q 306 -227 331 -194 q 248 -274 282 -260 q 168 -289 214 -289 q 81 -276 133 -289 l 81 -171 q 157 -186 132 -186 q 240 -126 215 -186 l 296 4 l 11 717 l 144 717 l 357 146 l 558 717 l 682 717 z "},"ф":{"ha":1111,"x_min":56,"x_max":1056,"o":"m 1056 369 q 1029 179 1056 263 q 935 40 1003 96 q 767 -17 868 -17 q 683 6 728 -17 q 617 54 639 28 l 614 54 l 614 -276 l 497 -276 l 497 54 l 494 54 q 428 6 472 28 q 344 -17 383 -17 q 176 40 243 -17 q 82 179 108 96 q 56 369 56 263 q 131 637 56 539 q 335 735 206 735 q 426 710 379 735 q 493 657 472 686 l 497 657 l 497 989 l 614 989 l 614 657 l 618 657 q 685 710 639 686 q 776 735 732 735 q 981 637 906 735 q 1056 369 1056 539 m 933 367 q 890 563 933 490 q 760 636 847 636 q 672 613 714 636 q 614 536 629 589 l 614 175 q 660 109 621 136 q 753 82 700 82 q 841 107 804 82 q 897 176 878 132 q 925 266 917 219 q 933 367 933 313 m 497 175 l 497 536 q 440 613 482 589 q 351 636 397 636 q 221 563 264 636 q 178 367 178 490 q 186 266 178 313 q 214 176 194 219 q 270 107 233 132 q 358 82 307 82 q 451 109 411 82 q 497 175 490 136 z "},"х":{"ha":719,"x_min":13,"x_max":707,"o":"m 678 717 l 428 386 l 707 0 l 556 0 l 354 294 l 156 0 l 13 0 l 282 378 l 33 717 l 183 717 l 357 471 l 535 717 l 678 717 z "},"ц":{"ha":792,"x_min":89,"x_max":771,"o":"m 658 -228 l 658 0 l 89 0 l 89 717 l 207 717 l 207 104 l 560 104 l 560 717 l 678 717 l 678 104 l 771 104 l 771 -228 l 658 -228 z "},"ч":{"ha":732,"x_min":69,"x_max":643,"o":"m 643 0 l 525 0 l 525 317 q 423 297 496 308 q 303 285 350 285 q 131 337 193 285 q 69 490 69 389 l 69 717 l 188 717 l 188 510 q 325 385 188 385 q 525 417 424 385 l 525 717 l 643 717 l 643 0 z "},"ш":{"ha":1124,"x_min":89,"x_max":1035,"o":"m 89 0 l 89 717 l 207 717 l 207 104 l 503 104 l 503 717 l 621 717 l 621 104 l 917 104 l 917 717 l 1035 717 l 1035 0 l 89 0 z "},"щ":{"ha":1144,"x_min":89,"x_max":1128,"o":"m 89 0 l 89 717 l 207 717 l 207 104 l 503 104 l 503 717 l 621 717 l 621 104 l 917 104 l 917 717 l 1035 717 l 1035 104 l 1128 104 l 1128 -228 l 1015 -228 l 1015 0 l 89 0 z "},"ъ":{"ha":849,"x_min":4,"x_max":818,"o":"m 754 384 q 786 355 754 384 q 818 224 818 325 q 756 61 818 122 q 590 0 694 0 l 211 0 l 211 613 l 4 613 l 4 717 l 329 717 l 329 443 l 585 443 q 754 384 690 443 m 696 224 q 547 342 696 342 l 329 342 l 329 104 l 547 104 q 658 135 619 104 q 696 224 696 167 z "},"ы":{"ha":978,"x_min":85,"x_max":890,"o":"m 772 717 l 890 717 l 890 0 l 772 0 l 772 717 m 594 384 q 626 355 594 384 q 658 224 658 325 q 597 61 658 122 q 431 0 535 0 l 85 0 l 85 717 l 203 717 l 203 443 l 425 443 q 594 384 531 443 m 388 342 l 203 342 l 203 104 l 388 104 q 498 135 460 104 q 536 224 536 167 q 388 342 536 342 z "},"ь":{"ha":721,"x_min":85,"x_max":692,"o":"m 628 384 q 660 355 628 384 q 692 224 692 325 q 630 61 692 122 q 464 0 568 0 l 85 0 l 85 717 l 203 717 l 203 443 l 458 443 q 628 384 564 443 m 421 342 l 203 342 l 203 104 l 421 104 q 531 135 493 104 q 569 224 569 167 q 421 342 569 342 z "},"э":{"ha":746,"x_min":43,"x_max":693,"o":"m 693 349 q 604 80 693 181 q 353 -21 515 -21 q 144 51 225 -21 q 43 244 63 122 l 163 244 q 229 121 179 164 q 356 78 279 78 q 505 144 449 78 q 568 326 561 210 l 268 326 l 268 422 l 565 422 q 493 581 550 524 q 347 639 436 639 q 174 508 213 639 l 49 508 q 147 678 68 618 q 349 738 225 738 q 600 633 507 738 q 693 349 693 528 z "},"ю":{"ha":1064,"x_min":89,"x_max":1013,"o":"m 683 738 q 926 639 840 738 q 1013 363 1013 540 q 926 79 1013 181 q 682 -22 839 -22 q 442 70 531 -22 q 346 328 353 163 l 207 328 l 207 0 l 89 0 l 89 717 l 207 717 l 207 432 l 351 432 q 458 656 371 575 q 683 738 546 738 m 835 563 q 806 601 835 563 q 681 639 778 639 q 526 563 583 639 q 468 358 468 486 q 525 152 468 226 q 683 78 582 78 q 836 153 781 78 q 892 360 892 228 q 835 563 892 488 z "},"я":{"ha":746,"x_min":-3,"x_max":656,"o":"m 656 0 l 538 0 l 538 293 l 381 293 l 154 0 l -3 0 l 244 297 q 116 365 165 310 q 67 506 67 419 q 126 661 67 606 q 292 717 186 717 l 656 717 l 656 0 m 538 613 l 329 613 q 188 506 188 613 q 329 397 188 397 l 538 397 l 538 613 z "},"ё":{"ha":746,"x_min":51,"x_max":710,"o":"m 583 988 l 583 847 l 458 847 l 458 988 l 583 988 m 321 988 l 321 847 l 194 847 l 194 988 l 321 988 m 701 226 q 389 -24 647 -24 q 141 75 231 -24 q 51 349 51 174 q 144 630 51 522 q 385 738 236 738 q 630 626 550 738 q 710 343 710 514 l 710 326 l 171 326 l 169 318 q 229 139 169 204 q 393 74 289 74 q 516 110 471 74 q 586 226 561 146 l 701 226 m 588 422 q 525 583 579 525 q 382 640 471 640 q 239 582 296 640 q 171 422 182 524 l 588 422 z "},"ђ":{"ha":772,"x_min":13,"x_max":711,"o":"m 711 119 q 606 -160 711 -51 q 333 -275 501 -268 l 333 -165 q 523 -74 453 -151 q 593 132 593 4 l 593 253 q 553 369 593 328 q 442 410 513 410 q 290 354 346 410 q 235 197 235 299 l 235 0 l 117 0 l 117 613 l 13 613 l 13 717 l 117 717 l 117 989 l 235 989 l 235 717 l 563 717 l 563 613 l 235 613 l 235 386 l 238 386 q 469 513 304 513 q 711 250 711 513 l 711 119 z "},"ѓ":{"ha":583,"x_min":92,"x_max":583,"o":"m 443 1017 l 276 819 l 185 819 l 297 1017 l 443 1017 m 583 613 l 210 613 l 210 0 l 92 0 l 92 717 l 583 717 l 583 613 z "},"є":{"ha":746,"x_min":56,"x_max":706,"o":"m 706 244 q 604 51 686 122 q 396 -21 522 -21 q 144 80 233 -21 q 56 349 56 181 q 149 633 56 528 q 400 738 242 738 q 601 678 524 738 q 700 508 679 619 l 575 508 q 401 639 536 639 q 255 581 313 639 q 183 422 197 524 l 486 422 l 486 326 l 179 326 q 243 144 186 210 q 393 78 300 78 q 519 121 469 78 q 586 244 569 164 l 706 244 z "},"ѕ":{"ha":694,"x_min":44,"x_max":650,"o":"m 621 508 l 503 508 q 328 639 492 639 q 221 613 260 639 q 182 542 182 586 q 185 517 182 529 q 195 497 188 506 q 209 481 203 488 q 230 467 215 474 q 252 457 244 461 q 280 448 260 453 q 308 441 300 443 q 341 433 317 439 q 372 426 365 428 q 449 408 424 415 q 520 383 475 401 q 589 344 565 364 q 631 288 613 324 q 650 208 650 253 q 569 41 650 104 q 353 -22 488 -22 q 128 42 207 -22 q 44 226 50 106 l 161 226 q 356 75 171 75 q 483 108 435 75 q 531 194 531 140 q 506 254 531 231 q 450 288 481 278 q 363 313 419 299 q 350 315 354 314 q 297 327 338 318 q 238 342 256 336 q 185 359 219 347 q 135 384 151 371 q 98 417 118 397 q 69 465 78 438 q 61 526 61 492 q 135 681 61 624 q 335 738 210 738 q 541 678 461 738 q 621 508 621 618 z "},"і":{"ha":308,"x_min":94,"x_max":214,"o":"m 214 989 l 214 844 l 94 844 l 94 989 l 214 989 m 214 717 l 214 0 l 94 0 l 94 717 l 214 717 z "},"ї":{"ha":308,"x_min":-40,"x_max":347,"o":"m 214 717 l 214 0 l 94 0 l 94 717 l 214 717 m 347 989 l 347 847 l 224 847 l 224 989 l 347 989 m 85 989 l 85 847 l -40 847 l -40 989 l 85 989 z "},"ј":{"ha":308,"x_min":-21,"x_max":217,"o":"m 217 717 l 217 -79 q 179 -238 217 -187 q 33 -289 142 -289 q -21 -283 11 -289 l -21 -185 q 19 -187 15 -187 q 65 -182 49 -187 q 89 -158 82 -176 q 97 -127 96 -140 q 97 -76 97 -114 l 97 717 l 217 717 m 217 989 l 217 844 l 97 844 l 97 989 l 217 989 z "},"љ":{"ha":1081,"x_min":13,"x_max":1050,"o":"m 992 386 q 1021 356 992 386 q 1050 224 1050 326 q 992 60 1050 121 q 831 0 935 0 l 517 0 l 517 613 l 306 613 l 296 296 q 236 58 292 132 q 97 -15 181 -15 q 13 0 46 -15 l 13 96 q 75 86 31 86 q 147 131 117 86 q 179 283 176 176 l 192 717 l 635 717 l 635 446 l 831 446 q 992 386 935 446 m 928 224 q 788 342 928 342 l 635 342 l 635 104 l 788 104 q 928 224 928 104 z "},"њ":{"ha":1081,"x_min":89,"x_max":1050,"o":"m 510 342 l 207 342 l 207 0 l 89 0 l 89 717 l 207 717 l 207 446 l 510 446 l 510 717 l 628 717 l 628 446 l 831 446 q 992 386 935 446 q 1050 224 1050 326 q 992 60 1050 121 q 831 0 935 0 l 510 0 l 510 342 m 788 342 l 628 342 l 628 104 l 788 104 q 928 224 928 104 q 788 342 928 342 z "},"ћ":{"ha":772,"x_min":13,"x_max":711,"o":"m 13 613 l 13 717 l 117 717 l 117 989 l 235 989 l 235 717 l 549 717 l 549 613 l 235 613 l 235 390 l 238 390 q 469 513 301 513 q 711 250 711 513 l 711 0 l 593 0 l 593 264 q 553 370 593 332 q 442 408 513 408 q 290 353 346 408 q 235 197 235 299 l 235 0 l 117 0 l 117 613 l 13 613 z "},"ќ":{"ha":721,"x_min":89,"x_max":731,"o":"m 526 1017 l 360 819 l 268 819 l 381 1017 l 526 1017 m 731 0 l 581 0 l 319 353 l 207 243 l 207 0 l 89 0 l 89 717 l 207 717 l 207 375 l 535 717 l 693 717 l 404 435 l 731 0 z "},"ў":{"ha":694,"x_min":11,"x_max":682,"o":"m 564 989 q 497 849 550 901 q 356 797 443 797 q 213 851 271 797 q 144 989 156 904 l 215 989 q 354 881 247 881 q 493 989 457 881 l 564 989 m 682 717 l 375 -92 q 344 -167 357 -140 q 306 -227 331 -194 q 248 -274 282 -260 q 168 -289 214 -289 q 81 -276 133 -289 l 81 -171 q 157 -186 132 -186 q 240 -126 215 -186 l 296 4 l 11 717 l 144 717 l 357 146 l 558 717 l 682 717 z "},"џ":{"ha":772,"x_min":89,"x_max":683,"o":"m 444 0 l 444 -228 l 326 -228 l 326 0 l 89 0 l 89 717 l 207 717 l 207 104 l 565 104 l 565 717 l 683 717 l 683 0 l 444 0 z "},"Ґ":{"ha":760,"x_min":110,"x_max":760,"o":"m 760 1213 l 760 875 l 240 875 l 240 0 l 110 0 l 110 989 l 628 989 l 628 1213 l 760 1213 z "},"ґ":{"ha":583,"x_min":89,"x_max":575,"o":"m 575 933 l 575 613 l 207 613 l 207 0 l 89 0 l 89 717 l 457 717 l 457 933 l 575 933 z "},"–":{"ha":694,"x_min":0,"x_max":694,"o":"m 694 443 l 694 329 l 0 329 l 0 443 l 694 443 z "},"—":{"ha":1389,"x_min":0,"x_max":1389,"o":"m 1389 443 l 1389 329 l 0 329 l 0 443 l 1389 443 z "},"‘":{"ha":386,"x_min":108,"x_max":265,"o":"m 265 657 l 108 657 l 108 808 q 151 938 108 881 q 265 1011 194 994 l 265 942 q 186 806 189 917 l 265 806 l 265 657 z "},"’":{"ha":386,"x_min":119,"x_max":276,"o":"m 276 989 l 276 838 q 233 708 276 765 q 119 635 190 651 l 119 704 q 199 840 196 729 l 119 840 l 119 989 l 276 989 z "},"‚":{"ha":386,"x_min":115,"x_max":265,"o":"m 265 143 l 265 31 q 115 -203 265 -160 l 115 -136 q 192 0 188 -106 l 115 0 l 115 143 l 265 143 z "},"“":{"ha":592,"x_min":93,"x_max":496,"o":"m 496 664 l 346 664 l 346 776 q 496 1010 346 967 l 496 943 q 419 807 424 913 l 496 807 l 496 664 m 243 664 l 93 664 l 93 776 q 243 1010 93 967 l 243 943 q 167 807 171 913 l 243 807 l 243 664 z "},"”":{"ha":592,"x_min":94,"x_max":497,"o":"m 497 989 l 497 876 q 347 643 497 686 l 347 710 q 424 846 419 740 l 347 846 l 347 989 l 497 989 m 244 989 l 244 876 q 94 643 244 686 l 94 710 q 171 846 167 740 l 94 846 l 94 989 l 244 989 z "},"„":{"ha":592,"x_min":96,"x_max":499,"o":"m 499 143 l 499 31 q 349 -203 499 -160 l 349 -136 q 425 0 421 -106 l 349 0 l 349 143 l 499 143 m 246 143 l 246 31 q 96 -203 246 -160 l 96 -136 q 172 0 168 -106 l 96 0 l 96 143 l 246 143 z "},"†":{"ha":772,"x_min":58,"x_max":714,"o":"m 714 703 l 714 600 l 440 600 l 440 -217 l 328 -217 l 328 600 l 58 600 l 58 703 l 328 703 l 328 989 l 440 989 l 440 703 l 714 703 z "},"‡":{"ha":772,"x_min":58,"x_max":714,"o":"m 714 713 l 714 610 l 440 610 l 440 161 l 714 161 l 714 58 l 440 58 l 440 -215 l 328 -215 l 328 58 l 58 58 l 58 161 l 328 161 l 328 610 l 58 610 l 58 713 l 328 713 l 328 989 l 440 989 l 440 713 l 714 713 z "},"•":{"ha":694,"x_min":100,"x_max":594,"o":"m 172 669 q 208 706 172 669 q 347 742 244 742 q 522 669 450 742 q 594 494 594 597 q 522 319 594 392 q 347 247 450 247 q 172 319 244 247 q 100 494 100 392 q 172 669 100 597 z "},"…":{"ha":1389,"x_min":175,"x_max":1214,"o":"m 175 0 l 175 149 l 289 149 l 289 0 l 175 0 m 638 0 l 638 149 l 751 149 l 751 0 l 638 0 m 1100 0 l 1100 149 l 1214 149 l 1214 0 l 1100 0 z "},"‰":{"ha":1594,"x_min":117,"x_max":1478,"o":"m 914 1015 l 260 -49 l 172 -49 l 831 1015 l 914 1015 m 169 924 q 196 954 169 924 q 321 985 222 985 q 472 926 419 985 q 524 753 524 867 q 470 576 524 638 q 318 514 417 514 q 117 749 117 514 q 169 924 117 863 m 421 747 q 319 910 421 910 q 218 744 218 910 q 319 590 218 590 q 421 747 421 590 m 643 394 q 669 425 643 394 q 794 456 696 456 q 945 397 893 456 q 997 224 997 338 q 944 47 997 108 q 792 -15 890 -15 q 590 219 590 -15 q 643 394 590 333 m 894 218 q 793 381 894 381 q 692 215 692 381 q 793 61 692 61 q 894 218 894 61 m 1124 394 q 1150 425 1124 394 q 1275 456 1176 456 q 1426 397 1374 456 q 1478 224 1478 338 q 1424 47 1478 108 q 1272 -15 1371 -15 q 1071 219 1071 -15 q 1124 394 1071 333 m 1375 218 q 1274 381 1375 381 q 1172 215 1172 381 q 1274 61 1172 61 q 1375 218 1375 61 z "},"‹":{"ha":360,"x_min":58,"x_max":269,"o":"m 269 592 l 269 472 l 129 368 l 269 258 l 269 139 l 58 307 l 58 428 l 269 592 z "},"›":{"ha":360,"x_min":90,"x_max":301,"o":"m 90 593 l 301 426 l 301 304 l 90 142 l 90 261 l 231 365 l 90 474 l 90 593 z "},"№":{"ha":1389,"x_min":107,"x_max":1314,"o":"m 1314 381 q 1260 235 1314 288 q 1113 183 1207 183 q 961 237 1017 183 q 906 382 906 290 q 960 529 906 474 q 1106 585 1015 585 q 1258 531 1203 585 q 1314 381 1314 476 m 1311 0 l 922 0 l 922 88 l 1311 88 l 1311 0 m 819 0 l 675 0 l 235 771 l 232 771 l 232 0 l 107 0 l 107 967 l 247 967 l 692 188 l 694 188 l 694 967 l 819 967 l 819 0 m 1213 385 q 1185 477 1213 446 q 1113 508 1158 508 q 1035 477 1063 508 q 1007 383 1007 446 q 1111 260 1007 260 q 1213 385 1213 260 z "},"™":{"ha":1375,"x_min":156,"x_max":1149,"o":"m 325 494 l 325 931 l 156 931 l 156 989 l 563 989 l 563 931 l 393 931 l 393 494 l 325 494 m 651 494 l 651 989 l 753 989 l 901 594 l 1050 989 l 1149 989 l 1149 494 l 1088 494 l 1088 924 l 928 494 l 872 494 l 713 924 l 713 494 l 651 494 z "},"∆":{"ha":931,"x_min":19,"x_max":911,"o":"m 513 989 l 911 0 l 19 0 l 411 989 l 513 989 m 147 85 l 778 85 l 460 897 l 147 85 z "},"√":{"ha":833,"x_min":50,"x_max":758,"o":"m 758 1092 l 467 -297 l 375 -297 l 147 175 l 83 144 l 50 214 l 189 281 l 410 -181 l 671 1092 l 758 1092 z "},"∞":{"ha":1029,"x_min":57,"x_max":972,"o":"m 515 392 q 573 449 557 433 q 628 494 589 464 q 702 538 667 525 q 775 550 738 550 q 917 492 861 550 q 972 346 972 435 q 918 197 972 254 q 778 140 864 140 q 658 173 717 140 q 515 289 600 206 q 488 264 513 286 q 457 237 463 242 q 428 213 451 232 q 395 189 406 194 q 363 171 385 183 q 327 153 342 158 q 292 144 313 149 q 251 140 271 140 q 111 197 165 140 q 57 342 57 253 q 111 490 57 432 q 249 549 165 549 q 351 521 297 549 q 437 465 404 493 q 515 392 469 438 m 568 340 q 631 284 606 306 q 699 242 657 263 q 781 221 742 221 q 863 254 832 221 q 893 342 893 288 q 861 435 893 400 q 776 469 829 469 q 697 444 740 469 q 631 400 653 419 q 568 340 610 381 m 463 342 q 416 379 450 351 q 361 423 382 407 q 308 453 340 439 q 247 468 276 468 q 167 432 199 468 q 135 342 135 396 q 167 253 135 286 q 253 221 200 221 q 463 342 342 221 z "},"≈":{"ha":833,"x_min":53,"x_max":781,"o":"m 781 572 q 726 431 771 481 q 606 382 681 382 q 414 431 560 382 q 365 447 396 436 q 319 462 333 457 q 284 473 304 467 q 250 481 264 479 q 224 483 236 483 q 152 452 182 483 q 115 372 122 421 l 53 372 q 103 510 60 454 q 226 565 147 565 q 279 559 249 565 q 329 547 310 553 q 386 528 349 540 q 435 511 424 515 q 474 498 443 508 q 524 481 506 488 q 568 469 542 475 q 613 464 594 464 q 685 495 657 464 q 721 572 714 526 l 781 572 m 781 336 q 726 195 771 244 q 606 146 681 146 q 414 194 560 146 q 365 210 396 200 q 319 226 333 221 q 284 237 304 231 q 250 245 264 243 q 224 247 236 247 q 152 216 182 247 q 115 136 122 185 l 53 136 q 103 274 60 218 q 226 329 147 329 q 279 323 249 329 q 329 310 310 317 q 386 292 349 304 q 435 275 424 279 q 474 262 443 272 q 524 245 506 251 q 568 233 542 239 q 613 228 594 228 q 685 259 657 228 q 721 336 714 290 l 781 336 z "},"≠":{"ha":833,"x_min":68,"x_max":765,"o":"m 319 268 l 414 450 l 68 450 l 68 533 l 460 533 l 567 738 l 639 699 l 550 533 l 765 533 l 765 450 l 507 450 l 411 268 l 765 268 l 765 186 l 367 186 l 261 -14 l 189 25 l 275 186 l 68 186 l 68 268 l 319 268 z "},"≤":{"ha":833,"x_min":68,"x_max":765,"o":"m 68 365 l 68 456 l 765 718 l 765 628 l 183 410 l 765 194 l 765 104 l 68 365 m 68 44 l 765 44 l 765 -37 l 68 -37 l 68 44 z "},"≥":{"ha":833,"x_min":68,"x_max":765,"o":"m 765 365 l 68 104 l 68 194 l 651 410 l 68 628 l 68 718 l 765 456 l 765 365 m 765 44 l 765 -37 l 68 -37 l 68 44 l 765 44 z "},"":{"ha":540,"x_min":68,"x_max":472,"o":"m 472 444 l 472 328 l 68 328 l 68 444 l 472 444 z "},"":{"ha":386,"x_min":0,"x_max":0,"o":""}}}
